ExploreSansMonoVariable-ExtraLight.ufo
<glyph name="exclam" format="2">
  <advance width="612"/>
  <unicode hex="0021"/>
  <outline>
    <contour>
      <point x="257" y="715" type="line"/>
      <point x="303" y="715" type="line"/>
      <point x="298" y="184" type="line"/>
      <point x="258" y="184" type="line"/>
    </contour>
    <contour>
      <point x="278" y="71" type="curve" smooth="yes"/>
      <point x="310" y="71"/>
      <point x="318" y="46"/>
      <point x="318" y="30" type="curve" smooth="yes"/>
      <point x="318" y="11"/>
      <point x="309" y="-8"/>
      <point x="278" y="-8" type="curve" smooth="yes"/>
      <point x="248" y="-8"/>
      <point x="239" y="11"/>
      <point x="239" y="30" type="curve" smooth="yes"/>
      <point x="239" y="46"/>
      <point x="246" y="71"/>
    </contour>
  </outline>
</glyph>
<glyph name="quotedbl" format="2">
  <advance width="600"/>
  <unicode hex="0022"/>
  <outline>
    <contour>
      <point x="164" y="772" type="line"/>
      <point x="197" y="772" type="line"/>
      <point x="193" y="434" type="line"/>
      <point x="168" y="434" type="line"/>
    </contour>
    <contour>
      <point x="403" y="772" type="line"/>
      <point x="436" y="772" type="line"/>
      <point x="432" y="434" type="line"/>
      <point x="407" y="434" type="line"/>
    </contour>
  </outline>
</glyph>
<glyph name="numbersign" format="2">
  <advance width="600"/>
  <unicode hex="0023"/>
  <outline>
    <contour>
      <point x="319" y="724" type="line"/>
      <point x="352" y="724" type="line"/>
      <point x="281" y="495" type="line"/>
      <point x="441" y="495" type="line"/>
      <point x="513" y="724" type="line"/>
      <point x="546" y="724" type="line"/>
      <point x="475" y="495" type="line"/>
      <point x="562" y="495" type="line"/>
      <point x="562" y="467" type="line"/>
      <point x="467" y="467" type="line"/>
      <point x="402" y="258" type="line"/>
      <point x="562" y="258" type="line"/>
      <point x="562" y="230" type="line"/>
      <point x="393" y="230" type="line"/>
      <point x="321" y="0" type="line"/>
      <point x="288" y="0" type="line"/>
      <point x="360" y="230" type="line"/>
      <point x="199" y="230" type="line"/>
      <point x="127" y="0" type="line"/>
      <point x="94" y="0" type="line"/>
      <point x="166" y="230" type="line"/>
      <point x="78" y="230" type="line"/>
      <point x="78" y="258" type="line"/>
      <point x="175" y="258" type="line"/>
      <point x="240" y="467" type="line"/>
      <point x="78" y="467" type="line"/>
      <point x="78" y="495" type="line"/>
      <point x="247" y="495" type="line"/>
    </contour>
    <contour>
      <point x="369" y="258" type="line"/>
      <point x="434" y="467" type="line"/>
      <point x="273" y="467" type="line"/>
      <point x="208" y="258" type="line"/>
    </contour>
  </outline>
</glyph>
<glyph name="percent" format="2">
  <advance width="600"/>
  <unicode hex="0025"/>
  <outline>
    <contour>
      <point x="496" y="558" type="line"/>
      <point x="522" y="531" type="line"/>
      <point x="103" y="150" type="line"/>
      <point x="77" y="177" type="line"/>
    </contour>
    <contour>
      <point x="437" y="299" type="curve" smooth="yes"/>
      <point x="517" y="299"/>
      <point x="568" y="238"/>
      <point x="568" y="146" type="curve" smooth="yes"/>
      <point x="568" y="53"/>
      <point x="517" y="-8"/>
      <point x="437" y="-8" type="curve" smooth="yes"/>
      <point x="358" y="-8"/>
      <point x="306" y="53"/>
      <point x="306" y="146" type="curve" smooth="yes"/>
      <point x="306" y="238"/>
      <point x="358" y="299"/>
    </contour>
    <contour>
      <point x="436" y="253" type="curve" smooth="yes"/>
      <point x="387" y="253"/>
      <point x="363" y="216"/>
      <point x="363" y="144" type="curve" smooth="yes"/>
      <point x="363" y="75"/>
      <point x="387" y="41"/>
      <point x="437" y="41" type="curve" smooth="yes"/>
      <point x="486" y="41"/>
      <point x="512" y="75"/>
      <point x="512" y="144" type="curve" smooth="yes"/>
      <point x="512" y="158"/>
      <point x="515" y="253"/>
    </contour>
    <contour>
      <point x="162" y="667" type="curve" smooth="yes"/>
      <point x="114" y="667"/>
      <point x="89" y="631"/>
      <point x="89" y="560" type="curve" smooth="yes"/>
      <point x="89" y="492"/>
      <point x="114" y="457"/>
      <point x="163" y="457" type="curve" smooth="yes"/>
      <point x="212" y="457"/>
      <point x="238" y="493"/>
      <point x="238" y="561" type="curve" smooth="yes"/>
      <point x="238" y="580"/>
      <point x="237" y="667"/>
    </contour>
    <contour>
      <point x="163" y="716" type="curve" smooth="yes"/>
      <point x="242" y="716"/>
      <point x="294" y="654"/>
      <point x="294" y="561" type="curve" smooth="yes"/>
      <point x="294" y="470"/>
      <point x="245" y="407"/>
      <point x="164" y="407" type="curve" smooth="yes"/>
      <point x="82" y="407"/>
      <point x="32" y="471"/>
      <point x="32" y="561" type="curve" smooth="yes"/>
      <point x="32" y="654"/>
      <point x="83" y="716"/>
    </contour>
  </outline>
</glyph>
<glyph name="ampersand" format="2">
  <advance width="600"/>
  <unicode hex="0026"/>
  <outline>
    <contour>
      <point x="297" y="716" type="curve" smooth="yes"/>
      <point x="342" y="716"/>
      <point x="364" y="710"/>
      <point x="402" y="694" type="curve"/>
      <point x="393" y="666" type="line"/>
      <point x="361" y="680"/>
      <point x="340" y="688"/>
      <point x="296" y="688" type="curve" smooth="yes"/>
      <point x="237" y="688"/>
      <point x="190" y="656"/>
      <point x="190" y="585" type="curve" smooth="yes"/>
      <point x="190" y="526"/>
      <point x="224" y="469"/>
      <point x="254" y="426" type="curve" smooth="yes"/>
      <point x="557" y="0" type="line"/>
      <point x="521" y="0" type="line"/>
      <point x="243" y="394" type="line" smooth="yes"/>
      <point x="192" y="467"/>
      <point x="158" y="521"/>
      <point x="158" y="587" type="curve" smooth="yes"/>
      <point x="158" y="671"/>
      <point x="218" y="716"/>
    </contour>
    <contour>
      <point x="234" y="439" type="line"/>
      <point x="234" y="414" type="line"/>
      <point x="230" y="414" type="line" smooth="yes"/>
      <point x="144" y="414"/>
      <point x="74" y="351"/>
      <point x="74" y="204" type="curve" smooth="yes"/>
      <point x="74" y="89"/>
      <point x="138" y="20"/>
      <point x="236" y="20" type="curve" smooth="yes"/>
      <point x="334" y="20"/>
      <point x="385" y="80"/>
      <point x="402" y="150" type="curve"/>
      <point x="465" y="416" type="line"/>
      <point x="571" y="407" type="line"/>
      <point x="571" y="379" type="line"/>
      <point x="488" y="386" type="line"/>
      <point x="476" y="339"/>
      <point x="440" y="192"/>
      <point x="427" y="137" type="curve"/>
      <point x="409" y="62"/>
      <point x="346" y="-8"/>
      <point x="235" y="-8" type="curve" smooth="yes"/>
      <point x="117" y="-8"/>
      <point x="42" y="77"/>
      <point x="42" y="207" type="curve" smooth="yes"/>
      <point x="42" y="352"/>
      <point x="129" y="439"/>
      <point x="220" y="439" type="curve" smooth="yes"/>
    </contour>
  </outline>
</glyph>
<glyph name="quotesingle" format="2">
  <advance width="576"/>
  <unicode hex="0027"/>
  <outline>
    <contour>
      <point x="53.2" y="772" type="line"/>
      <point x="89.2" y="772" type="line"/>
      <point x="84.4" y="507.8" type="line"/>
      <point x="58" y="507.8" type="line"/>
    </contour>
  </outline>
</glyph>
<glyph name="parenleft" format="2">
  <advance width="640"/>
  <unicode hex="0028"/>
  <outline>
    <contour>
      <point x="413" y="800" type="curve"/>
      <point x="455" y="800" type="line"/>
      <point x="351" y="714"/>
      <point x="259" y="567"/>
      <point x="259" y="366" type="curve" smooth="yes"/>
      <point x="259" y="194"/>
      <point x="349" y="31"/>
      <point x="453" y="-64" type="curve"/>
      <point x="412" y="-64" type="line"/>
      <point x="315" y="24"/>
      <point x="227" y="158"/>
      <point x="227" y="366" type="curve" smooth="yes"/>
      <point x="227" y="598"/>
      <point x="317" y="714"/>
    </contour>
  </outline>
</glyph>
<glyph name="parenright" format="2">
  <advance width="612"/>
  <unicode hex="0029"/>
  <outline>
    <contour>
      <point x="185" y="800" type="curve"/>
      <point x="227" y="800" type="line"/>
      <point x="323" y="714"/>
      <point x="413" y="598"/>
      <point x="413" y="366" type="curve" smooth="yes"/>
      <point x="413" y="158"/>
      <point x="325" y="24"/>
      <point x="228" y="-64" type="curve"/>
      <point x="187" y="-64" type="line"/>
      <point x="291" y="31"/>
      <point x="381" y="194"/>
      <point x="381" y="366" type="curve" smooth="yes"/>
      <point x="381" y="567"/>
      <point x="289" y="714"/>
    </contour>
  </outline>
</glyph>
<glyph name="asterisk" format="2">
  <advance width="612"/>
  <unicode hex="002A"/>
  <outline>
    <contour>
      <point x="287" y="806" type="line"/>
      <point x="321" y="806" type="line"/>
      <point x="321" y="659" type="line"/>
      <point x="317" y="620" type="line"/>
      <point x="354" y="637" type="line"/>
      <point x="490" y="683" type="line"/>
      <point x="503" y="644" type="line"/>
      <point x="375" y="605" type="line"/>
      <point x="333" y="597" type="line"/>
      <point x="355" y="568" type="line"/>
      <point x="442" y="441" type="line"/>
      <point x="409" y="419" type="line"/>
      <point x="325" y="545" type="line"/>
      <point x="306" y="582" type="line"/>
      <point x="285" y="545" type="line"/>
      <point x="198" y="419" type="line"/>
      <point x="167" y="441" type="line"/>
      <point x="253" y="567" type="line"/>
      <point x="277" y="596" type="line"/>
      <point x="235" y="605" type="line"/>
      <point x="109" y="644" type="line"/>
      <point x="123" y="683" type="line"/>
      <point x="253" y="638" type="line"/>
      <point x="291" y="620" type="line"/>
      <point x="287" y="659" type="line"/>
    </contour>
  </outline>
</glyph>
<glyph name="plus" format="2">
  <advance width="600"/>
  <unicode hex="002B"/>
  <outline>
    <contour>
      <point x="271" y="478" type="line"/>
      <point x="303" y="478" type="line"/>
      <point x="303" y="283" type="line"/>
      <point x="500" y="283" type="line"/>
      <point x="500" y="251" type="line"/>
      <point x="303" y="251" type="line"/>
      <point x="303" y="54" type="line"/>
      <point x="271" y="54" type="line"/>
      <point x="271" y="251" type="line"/>
      <point x="80" y="251" type="line"/>
      <point x="80" y="283" type="line"/>
      <point x="271" y="283" type="line"/>
    </contour>
  </outline>
</glyph>
<glyph name="comma" format="2">
  <advance width="612"/>
  <unicode hex="002C"/>
  <outline>
    <contour>
      <point x="235" y="79" type="line"/>
      <point x="279" y="79" type="line"/>
      <point x="262" y="-143" type="line"/>
      <point x="235" y="-143" type="line"/>
    </contour>
  </outline>
</glyph>
<glyph name="hyphen" format="2">
  <advance width="612"/>
  <unicode hex="002D"/>
  <outline>
    <contour>
      <point x="80" y="280" type="line"/>
      <point x="532" y="280" type="line"/>
      <point x="532" y="252" type="line"/>
      <point x="80" y="252" type="line"/>
    </contour>
  </outline>
</glyph>
<glyph name="period" format="2">
  <advance width="612"/>
  <unicode hex="002E"/>
  <outline>
    <contour>
      <point x="289" y="71" type="curve" smooth="yes"/>
      <point x="312" y="71"/>
      <point x="329" y="55"/>
      <point x="329" y="31" type="curve" smooth="yes"/>
      <point x="329" y="7"/>
      <point x="312" y="-8"/>
      <point x="289" y="-8" type="curve" smooth="yes"/>
      <point x="266" y="-8"/>
      <point x="250" y="7"/>
      <point x="250" y="31" type="curve" smooth="yes"/>
      <point x="250" y="55"/>
      <point x="266" y="71"/>
    </contour>
  </outline>
</glyph>
<glyph name="slash" format="2">
  <advance width="600"/>
  <unicode hex="002F"/>
  <outline>
    <contour>
      <point x="494" y="772" type="line"/>
      <point x="524" y="772" type="line"/>
      <point x="178" y="-34" type="line"/>
      <point x="148" y="-34" type="line"/>
    </contour>
  </outline>
</glyph>
<glyph name="zero" format="2">
  <advance width="612"/>
  <unicode hex="0030"/>
  <outline>
    <contour>
      <point x="305" y="688" type="curve" smooth="yes"/>
      <point x="181" y="688"/>
      <point x="96" y="590"/>
      <point x="96" y="358" type="curve" smooth="yes"/>
      <point x="96" y="125"/>
      <point x="181" y="21"/>
      <point x="304" y="21" type="curve" smooth="yes"/>
      <point x="429" y="21"/>
      <point x="516" y="126"/>
      <point x="516" y="360" type="curve" smooth="yes"/>
      <point x="516" y="589"/>
      <point x="429" y="688"/>
    </contour>
    <contour>
      <point x="305" y="716" type="curve" smooth="yes"/>
      <point x="454" y="716"/>
      <point x="548" y="603"/>
      <point x="548" y="360" type="curve" smooth="yes"/>
      <point x="548" y="114"/>
      <point x="456" y="-7"/>
      <point x="304" y="-7" type="curve" smooth="yes"/>
      <point x="162" y="-7"/>
      <point x="64" y="115"/>
      <point x="64" y="357" type="curve" smooth="yes"/>
      <point x="64" y="604"/>
      <point x="162" y="716"/>
    </contour>
  </outline>
</glyph>
<glyph name="one" format="2">
  <advance width="512"/>
  <unicode hex="0031"/>
  <outline>
    <contour>
      <point x="276" y="708" type="line"/>
      <point x="311" y="708" type="line"/>
      <point x="311" y="28" type="line"/>
      <point x="450" y="28" type="line"/>
      <point x="450" y="0" type="line"/>
      <point x="110" y="0" type="line"/>
      <point x="110" y="28" type="line"/>
      <point x="279" y="28" type="line"/>
      <point x="279" y="680" type="line"/>
      <point x="100" y="589.2" type="line"/>
      <point x="100" y="620" type="line"/>
    </contour>
  </outline>
</glyph>
<glyph name="two" format="2">
  <advance width="612"/>
  <unicode hex="0032"/>
  <outline>
    <contour>
      <point x="72" y="639" type="line"/>
      <point x="141" y="694"/>
      <point x="208" y="716"/>
      <point x="281" y="716" type="curve" smooth="yes"/>
      <point x="413" y="716"/>
      <point x="520" y="656"/>
      <point x="520" y="538" type="curve" smooth="yes"/>
      <point x="520" y="471"/>
      <point x="492" y="414"/>
      <point x="406" y="322" type="curve"/>
      <point x="392" y="307"/>
      <point x="121" y="29"/>
      <point x="120" y="28" type="curve"/>
      <point x="523" y="28" type="line"/>
      <point x="525" y="0" type="line"/>
      <point x="79" y="0" type="line"/>
      <point x="79" y="28" type="line"/>
      <point x="348" y="303" type="line" smooth="yes"/>
      <point x="466" y="423"/>
      <point x="488" y="456"/>
      <point x="488" y="542" type="curve" smooth="yes"/>
      <point x="488" y="643"/>
      <point x="388" y="688"/>
      <point x="281" y="688" type="curve" smooth="yes"/>
      <point x="210" y="688"/>
      <point x="150" y="668"/>
      <point x="93" y="619" type="curve"/>
    </contour>
  </outline>
</glyph>
<glyph name="three" format="2">
  <advance width="600"/>
  <unicode hex="0033"/>
  <outline>
    <contour>
      <point x="106" y="708" type="line"/>
      <point x="489" y="708" type="line"/>
      <point x="489" y="680" type="line"/>
      <point x="288" y="423" type="line"/>
      <point x="430" y="423"/>
      <point x="532" y="358"/>
      <point x="532" y="212" type="curve"/>
      <point x="532" y="70"/>
      <point x="421" y="-8"/>
      <point x="296" y="-8" type="curve" smooth="yes"/>
      <point x="172" y="-8"/>
      <point x="123" y="37"/>
      <point x="78" y="76" type="curve"/>
      <point x="96" y="98" type="line"/>
      <point x="146" y="53"/>
      <point x="196" y="20"/>
      <point x="293" y="20" type="curve" smooth="yes"/>
      <point x="404" y="20"/>
      <point x="500" y="79"/>
      <point x="500" y="217" type="curve" smooth="yes"/>
      <point x="500" y="338"/>
      <point x="417" y="392"/>
      <point x="275" y="392" type="curve" smooth="yes"/>
      <point x="256" y="392" type="line"/>
      <point x="253" y="424" type="line"/>
      <point x="451" y="680" type="line"/>
      <point x="106" y="680" type="line"/>
    </contour>
  </outline>
</glyph>
<glyph name="four" format="2">
  <advance width="600"/>
  <unicode hex="0034"/>
  <outline>
    <contour>
      <point x="320" y="708" type="line"/>
      <point x="352" y="708" type="line"/>
      <point x="111" y="214" type="line"/>
      <point x="396" y="214" type="line"/>
      <point x="396" y="418" type="line"/>
      <point x="428" y="418" type="line"/>
      <point x="428" y="214" type="line"/>
      <point x="525" y="214" type="line"/>
      <point x="525" y="186" type="line"/>
      <point x="428" y="186" type="line"/>
      <point x="428" y="0" type="line"/>
      <point x="396" y="0" type="line"/>
      <point x="396" y="186" type="line"/>
      <point x="78" y="186" type="line"/>
      <point x="78" y="213" type="line"/>
    </contour>
  </outline>
</glyph>
<glyph name="five" format="2">
  <advance width="600"/>
  <unicode hex="0035"/>
  <outline>
    <contour>
      <point x="126" y="708" type="line"/>
      <point x="475" y="708" type="line"/>
      <point x="475" y="680" type="line"/>
      <point x="155" y="680" type="line"/>
      <point x="148" y="376" type="line"/>
      <point x="170" y="403"/>
      <point x="230" y="433"/>
      <point x="300" y="433" type="curve" smooth="yes"/>
      <point x="412" y="433"/>
      <point x="524" y="374"/>
      <point x="524" y="213" type="curve" smooth="yes"/>
      <point x="524" y="66"/>
      <point x="406" y="-8"/>
      <point x="278" y="-8" type="curve" smooth="yes"/>
      <point x="192" y="-8"/>
      <point x="128" y="10"/>
      <point x="70" y="53" type="curve"/>
      <point x="86" y="79" type="line"/>
      <point x="140" y="34"/>
      <point x="213" y="20"/>
      <point x="278" y="20" type="curve" smooth="yes"/>
      <point x="385" y="20"/>
      <point x="492" y="77"/>
      <point x="492" y="208" type="curve" smooth="yes"/>
      <point x="492" y="350"/>
      <point x="397" y="405"/>
      <point x="295" y="405" type="curve" smooth="yes"/>
      <point x="231" y="405"/>
      <point x="179" y="384"/>
      <point x="142" y="348" type="curve"/>
      <point x="118" y="348" type="line"/>
    </contour>
  </outline>
</glyph>
<glyph name="six" format="2">
  <advance width="600"/>
  <unicode hex="0036"/>
  <outline>
    <contour>
      <point x="428" y="716" type="curve"/>
      <point x="431" y="688" type="line"/>
      <point x="276" y="673"/>
      <point x="113" y="544"/>
      <point x="113" y="340" type="curve"/>
      <point x="125" y="381"/>
      <point x="201" y="439"/>
      <point x="308" y="439" type="curve" smooth="yes"/>
      <point x="431" y="439"/>
      <point x="520" y="372"/>
      <point x="520" y="215" type="curve" smooth="yes"/>
      <point x="520" y="214"/>
      <point x="520" y="213"/>
      <point x="520" y="213" type="curve" smooth="yes"/>
      <point x="520" y="75"/>
      <point x="437" y="-8"/>
      <point x="301" y="-8" type="curve" smooth="yes"/>
      <point x="133" y="-8"/>
      <point x="80" y="88"/>
      <point x="80" y="307" type="curve" smooth="yes"/>
      <point x="80" y="308"/>
      <point x="80" y="310"/>
      <point x="80" y="312" type="curve" smooth="yes"/>
      <point x="80" y="568"/>
      <point x="269" y="703"/>
    </contour>
    <contour>
      <point x="308" y="411" type="curve" smooth="yes"/>
      <point x="212" y="411"/>
      <point x="145" y="371"/>
      <point x="113" y="315" type="curve"/>
      <point x="113" y="302"/>
      <point x="113" y="262"/>
      <point x="113" y="247" type="curve" smooth="yes"/>
      <point x="113" y="118"/>
      <point x="160" y="20"/>
      <point x="300" y="20" type="curve" smooth="yes"/>
      <point x="429" y="20"/>
      <point x="488" y="98"/>
      <point x="488" y="213" type="curve" smooth="yes"/>
      <point x="488" y="214"/>
      <point x="488" y="214"/>
      <point x="488" y="215" type="curve" smooth="yes"/>
      <point x="488" y="348"/>
      <point x="416" y="411"/>
    </contour>
  </outline>
</glyph>
<glyph name="seven" format="2">
  <advance width="612"/>
  <unicode hex="0037"/>
  <outline>
    <contour>
      <point x="77" y="708" type="line"/>
      <point x="544" y="708" type="line"/>
      <point x="544" y="680" type="line"/>
      <point x="208" y="0" type="line"/>
      <point x="174" y="0" type="line"/>
      <point x="509" y="680" type="line"/>
      <point x="77" y="680" type="line"/>
    </contour>
  </outline>
</glyph>
<glyph name="eight" format="2">
  <advance width="600"/>
  <unicode hex="0038"/>
  <outline>
    <contour>
      <point x="306" y="716" type="curve" smooth="yes"/>
      <point x="431" y="716"/>
      <point x="516" y="657"/>
      <point x="516" y="529" type="curve" smooth="yes"/>
      <point x="516" y="528"/>
      <point x="516" y="528"/>
      <point x="516" y="527" type="curve" smooth="yes"/>
      <point x="516" y="434"/>
      <point x="465" y="392"/>
      <point x="396" y="369" type="curve"/>
      <point x="456" y="354"/>
      <point x="532" y="296"/>
      <point x="532" y="191" type="curve" smooth="yes"/>
      <point x="532" y="190"/>
      <point x="532" y="190"/>
      <point x="532" y="189" type="curve" smooth="yes"/>
      <point x="532" y="57"/>
      <point x="450" y="-8"/>
      <point x="306" y="-8" type="curve" smooth="yes"/>
      <point x="170" y="-8"/>
      <point x="80" y="57"/>
      <point x="80" y="186" type="curve" smooth="yes"/>
      <point x="80" y="186"/>
      <point x="80" y="187"/>
      <point x="80" y="188" type="curve" smooth="yes"/>
      <point x="80" y="295"/>
      <point x="155" y="348"/>
      <point x="214" y="369" type="curve"/>
      <point x="152" y="389"/>
      <point x="96" y="430"/>
      <point x="96" y="527" type="curve" smooth="yes"/>
      <point x="96" y="527"/>
      <point x="96" y="528"/>
      <point x="96" y="529" type="curve" smooth="yes"/>
      <point x="96" y="659"/>
      <point x="182" y="716"/>
    </contour>
    <contour>
      <point x="306" y="688" type="curve" smooth="yes"/>
      <point x="196" y="688"/>
      <point x="127" y="632"/>
      <point x="128" y="529" type="curve" smooth="yes"/>
      <point x="128" y="528"/>
      <point x="128" y="528"/>
      <point x="128" y="527" type="curve" smooth="yes"/>
      <point x="128" y="437"/>
      <point x="197" y="385"/>
      <point x="306" y="385" type="curve" smooth="yes"/>
      <point x="419" y="385"/>
      <point x="484" y="436"/>
      <point x="484" y="527" type="curve" smooth="yes"/>
      <point x="484" y="528"/>
      <point x="484" y="528"/>
      <point x="484" y="529" type="curve" smooth="yes"/>
      <point x="484" y="633"/>
      <point x="420" y="688"/>
    </contour>
    <contour>
      <point x="306" y="357" type="curve" smooth="yes"/>
      <point x="188" y="357"/>
      <point x="112" y="283"/>
      <point x="112" y="186" type="curve" smooth="yes"/>
      <point x="112" y="185"/>
      <point x="112" y="185"/>
      <point x="112" y="184" type="curve" smooth="yes"/>
      <point x="112" y="88"/>
      <point x="186" y="20"/>
      <point x="306" y="20" type="curve" smooth="yes"/>
      <point x="431" y="20"/>
      <point x="500" y="85"/>
      <point x="500" y="187" type="curve" smooth="yes"/>
      <point x="500" y="188"/>
      <point x="500" y="188"/>
      <point x="500" y="189" type="curve" smooth="yes"/>
      <point x="500" y="283"/>
      <point x="432" y="357"/>
    </contour>
  </outline>
</glyph>
<glyph name="nine" format="2">
  <advance width="600"/>
  <unicode hex="0039"/>
  <outline>
    <contour>
      <point x="130" y="20" type="line"/>
      <point x="307" y="20"/>
      <point x="480" y="125"/>
      <point x="480" y="382" type="curve"/>
      <point x="471" y="318"/>
      <point x="398" y="261"/>
      <point x="291" y="261" type="curve" smooth="yes"/>
      <point x="159" y="261"/>
      <point x="89" y="332"/>
      <point x="89" y="489" type="curve" smooth="yes"/>
      <point x="89" y="628"/>
      <point x="167" y="716"/>
      <point x="298" y="716" type="curve" smooth="yes"/>
      <point x="433" y="716"/>
      <point x="512" y="625"/>
      <point x="512" y="429" type="curve" smooth="yes"/>
      <point x="512" y="100"/>
      <point x="325" y="-8"/>
      <point x="130" y="-8" type="curve"/>
    </contour>
    <contour>
      <point x="298" y="688" type="curve" smooth="yes"/>
      <point x="174" y="688"/>
      <point x="122" y="605"/>
      <point x="122" y="489" type="curve" smooth="yes"/>
      <point x="122" y="356"/>
      <point x="171" y="289"/>
      <point x="291" y="289" type="curve" smooth="yes"/>
      <point x="356" y="289"/>
      <point x="435" y="313"/>
      <point x="480" y="404" type="curve"/>
      <point x="480" y="475" type="line"/>
      <point x="480" y="594"/>
      <point x="414" y="688"/>
    </contour>
  </outline>
</glyph>
<glyph name="colon" format="2">
  <advance width="576"/>
  <unicode hex="003A"/>
  <outline>
    <contour>
      <point x="102" y="528" type="curve" smooth="yes"/>
      <point x="125" y="528"/>
      <point x="142" y="512"/>
      <point x="142" y="488" type="curve" smooth="yes"/>
      <point x="142" y="464"/>
      <point x="125" y="449"/>
      <point x="102" y="449" type="curve" smooth="yes"/>
      <point x="79" y="449"/>
      <point x="63" y="464"/>
      <point x="63" y="488" type="curve" smooth="yes"/>
      <point x="63" y="512"/>
      <point x="79" y="528"/>
    </contour>
    <contour>
      <point x="102" y="71" type="curve" smooth="yes"/>
      <point x="125" y="71"/>
      <point x="142" y="55"/>
      <point x="142" y="31" type="curve" smooth="yes"/>
      <point x="142" y="7"/>
      <point x="125" y="-8"/>
      <point x="102" y="-8" type="curve" smooth="yes"/>
      <point x="79" y="-8"/>
      <point x="63" y="7"/>
      <point x="63" y="31" type="curve" smooth="yes"/>
      <point x="63" y="55"/>
      <point x="79" y="71"/>
    </contour>
  </outline>
</glyph>
<glyph name="less" format="2">
  <advance width="600"/>
  <unicode hex="003C"/>
  <outline>
    <contour>
      <point x="77" y="303" type="line"/>
      <point x="489" y="465" type="line"/>
      <point x="500" y="435" type="line"/>
      <point x="101" y="279" type="line"/>
      <point x="500" y="122" type="line"/>
      <point x="489" y="87" type="line"/>
      <point x="77" y="253" type="line"/>
    </contour>
  </outline>
</glyph>
<glyph name="equal" format="2">
  <advance width="600"/>
  <unicode hex="003D"/>
  <outline>
    <contour>
      <point x="96" y="398" type="line"/>
      <point x="516" y="398" type="line"/>
      <point x="516" y="370" type="line"/>
      <point x="96" y="370" type="line"/>
    </contour>
    <contour>
      <point x="96" y="205" type="line"/>
      <point x="516" y="205" type="line"/>
      <point x="516" y="178" type="line"/>
      <point x="96" y="177" type="line"/>
    </contour>
  </outline>
</glyph>
<glyph name="greater" format="2">
  <advance width="600"/>
  <unicode hex="003E"/>
  <outline>
    <contour>
      <point x="50.6" y="501.4" type="line"/>
      <point x="466.6" y="329.4" type="line"/>
      <point x="466.6" y="227.6" type="line"/>
      <point x="50.6" y="55.6" type="line"/>
      <point x="30.8" y="90.2" type="line"/>
      <point x="483.4" y="279.6" type="line"/>
      <point x="30.8" y="466.8" type="line"/>
    </contour>
  </outline>
</glyph>
<glyph name="question" format="2">
  <advance width="612"/>
  <unicode hex="003F"/>
  <outline>
    <contour>
      <point x="237" y="732" type="curve"/>
      <point x="332" y="732"/>
      <point x="426" y="688"/>
      <point x="426" y="576" type="curve" smooth="yes"/>
      <point x="426" y="491"/>
      <point x="375" y="445"/>
      <point x="318" y="399" type="curve"/>
      <point x="252" y="343"/>
      <point x="221" y="310"/>
      <point x="221" y="249" type="curve" smooth="yes"/>
      <point x="221" y="222"/>
      <point x="223" y="198"/>
      <point x="230" y="163" type="curve"/>
      <point x="201" y="157" type="line"/>
      <point x="193" y="182"/>
      <point x="189" y="210"/>
      <point x="189" y="247" type="curve" smooth="yes"/>
      <point x="189" y="324"/>
      <point x="237" y="370"/>
      <point x="299" y="422" type="curve"/>
      <point x="342" y="459"/>
      <point x="394" y="493"/>
      <point x="394" y="576" type="curve" smooth="yes"/>
      <point x="394" y="657"/>
      <point x="326" y="704"/>
      <point x="238" y="704" type="curve" smooth="yes"/>
      <point x="177" y="704"/>
      <point x="114" y="686"/>
      <point x="63" y="644" type="curve"/>
      <point x="48.8" y="668.6" type="line"/>
      <point x="103.6" y="711.8"/>
      <point x="166" y="732"/>
    </contour>
    <contour>
      <point x="221.2" y="72.8" type="curve" smooth="yes"/>
      <point x="246.2" y="72.8"/>
      <point x="261.2" y="52.8"/>
      <point x="261.2" y="32.8" type="curve" smooth="yes"/>
      <point x="261.2" y="11.8"/>
      <point x="245.8" y="-6.4"/>
      <point x="221.2" y="-6.4" type="curve" smooth="yes"/>
      <point x="195.2" y="-6.4"/>
      <point x="182" y="12.2"/>
      <point x="182" y="32.8" type="curve" smooth="yes"/>
      <point x="182" y="51.8"/>
      <point x="194.2" y="72.8"/>
    </contour>
  </outline>
</glyph>
<glyph name="at" format="2">
  <advance width="600"/>
  <unicode hex="0040"/>
  <outline>
    <contour>
      <point x="371" y="800" type="curve" smooth="yes"/>
      <point x="474" y="800"/>
      <point x="578" y="743"/>
      <point x="578" y="620" type="curve"/>
      <point x="517" y="245" type="line"/>
      <point x="591" y="155" type="line"/>
      <point x="570" y="129" type="line"/>
      <point x="499" y="219" type="line"/>
      <point x="468" y="165"/>
      <point x="436" y="124"/>
      <point x="351" y="124" type="curve" smooth="yes"/>
      <point x="271" y="124"/>
      <point x="212" y="184"/>
      <point x="212" y="312" type="curve" smooth="yes"/>
      <point x="212" y="479"/>
      <point x="306" y="581"/>
      <point x="404" y="581" type="curve" smooth="yes"/>
      <point x="468" y="581"/>
      <point x="512" y="533"/>
      <point x="525" y="511" type="curve"/>
      <point x="544" y="625" type="line"/>
      <point x="544" y="715"/>
      <point x="463" y="772"/>
      <point x="375" y="772" type="curve" smooth="yes"/>
      <point x="212" y="772"/>
      <point x="61" y="625"/>
      <point x="61" y="342" type="curve" smooth="yes"/>
      <point x="61" y="73"/>
      <point x="157" y="-53"/>
      <point x="349" y="-53" type="curve" smooth="yes"/>
      <point x="405" y="-53"/>
      <point x="457" y="-44"/>
      <point x="507" y="-24" type="curve"/>
      <point x="507" y="-52" type="line"/>
      <point x="451" y="-74"/>
      <point x="381" y="-82"/>
      <point x="345" y="-82" type="curve" smooth="yes"/>
      <point x="186" y="-82"/>
      <point x="33" y="14"/>
      <point x="33" y="346" type="curve" smooth="yes"/>
      <point x="33" y="639"/>
      <point x="196" y="800"/>
    </contour>
    <contour>
      <point x="403" y="548" type="curve" smooth="yes"/>
      <point x="313" y="548"/>
      <point x="240" y="445"/>
      <point x="240" y="317" type="curve" smooth="yes"/>
      <point x="240" y="207"/>
      <point x="278" y="152"/>
      <point x="359" y="152" type="curve" smooth="yes"/>
      <point x="435" y="152"/>
      <point x="481" y="208"/>
      <point x="493" y="288" type="curve" smooth="yes"/>
      <point x="519" y="469" type="line"/>
      <point x="491" y="513"/>
      <point x="457" y="548"/>
    </contour>
  </outline>
</glyph>
<glyph name="A" format="2">
  <advance width="612"/>
  <unicode hex="0041"/>
  <anchor x="320" y="881" name="AccentCenter"/>
  <outline>
    <contour>
      <point x="287" y="708" type="line"/>
      <point x="339" y="708" type="line"/>
      <point x="560" y="0" type="line"/>
      <point x="524" y="0" type="line"/>
      <point x="456" y="214" type="line"/>
      <point x="149" y="214" type="line"/>
      <point x="75" y="0" type="line"/>
      <point x="40" y="0" type="line"/>
    </contour>
    <contour>
      <point x="304" y="678" type="line"/>
      <point x="161" y="242" type="line"/>
      <point x="448" y="242" type="line"/>
      <point x="321" y="678" type="line"/>
    </contour>
  </outline>
</glyph>
<glyph name="B" format="2">
  <advance width="600"/>
  <unicode hex="0042"/>
  <outline>
    <contour>
      <point x="100" y="708" type="line"/>
      <point x="308" y="708" type="line" smooth="yes"/>
      <point x="433" y="708"/>
      <point x="497" y="641"/>
      <point x="497" y="534" type="curve" smooth="yes"/>
      <point x="497" y="532"/>
      <point x="497" y="530"/>
      <point x="497" y="528" type="curve" smooth="yes"/>
      <point x="497" y="459"/>
      <point x="469" y="396"/>
      <point x="386" y="375" type="curve"/>
      <point x="480" y="361"/>
      <point x="530" y="293"/>
      <point x="530" y="202" type="curve" smooth="yes"/>
      <point x="530" y="201"/>
      <point x="530" y="200"/>
      <point x="530" y="199" type="curve" smooth="yes"/>
      <point x="530" y="78"/>
      <point x="450" y="0"/>
      <point x="324" y="0" type="curve" smooth="yes"/>
      <point x="100" y="0" type="line"/>
    </contour>
    <contour>
      <point x="132" y="680" type="line"/>
      <point x="132" y="387" type="line"/>
      <point x="337" y="387" type="line" smooth="yes"/>
      <point x="425" y="387"/>
      <point x="468" y="446"/>
      <point x="468" y="528" type="curve" smooth="yes"/>
      <point x="468" y="530"/>
      <point x="468" y="532"/>
      <point x="468" y="534" type="curve" smooth="yes"/>
      <point x="468" y="610"/>
      <point x="426" y="680"/>
      <point x="315" y="680" type="curve" smooth="yes"/>
    </contour>
    <contour>
      <point x="132" y="362" type="line"/>
      <point x="132" y="28" type="line"/>
      <point x="335" y="28" type="line" smooth="yes"/>
      <point x="438" y="28"/>
      <point x="498" y="102"/>
      <point x="498" y="199" type="curve" smooth="yes"/>
      <point x="498" y="200"/>
      <point x="498" y="201"/>
      <point x="498" y="202" type="curve" smooth="yes"/>
      <point x="498" y="294"/>
      <point x="440" y="362"/>
      <point x="331" y="362" type="curve" smooth="yes"/>
    </contour>
  </outline>
</glyph>
<glyph name="C" format="2">
  <advance width="600"/>
  <unicode hex="0043"/>
  <outline>
    <contour>
      <point x="354" y="716" type="curve" smooth="yes"/>
      <point x="429" y="716"/>
      <point x="484" y="694"/>
      <point x="537" y="650" type="curve"/>
      <point x="518" y="625" type="line"/>
      <point x="476" y="666"/>
      <point x="415" y="688"/>
      <point x="354" y="688" type="curve" smooth="yes"/>
      <point x="226" y="688"/>
      <point x="120" y="586"/>
      <point x="120" y="352" type="curve" smooth="yes"/>
      <point x="120" y="165"/>
      <point x="184" y="20"/>
      <point x="352" y="20" type="curve" smooth="yes"/>
      <point x="427" y="20"/>
      <point x="489" y="44"/>
      <point x="534" y="75" type="curve"/>
      <point x="548" y="50" type="line"/>
      <point x="497" y="22"/>
      <point x="447" y="-8"/>
      <point x="352" y="-8" type="curve" smooth="yes"/>
      <point x="170" y="-8"/>
      <point x="88" y="127"/>
      <point x="88" y="352" type="curve" smooth="yes"/>
      <point x="88" y="608"/>
      <point x="206" y="716"/>
    </contour>
  </outline>
</glyph>
<glyph name="D" format="2">
  <advance width="600"/>
  <unicode hex="0044"/>
  <outline>
    <contour>
      <point x="117" y="680" type="line"/>
      <point x="117" y="28" type="line"/>
      <point x="252" y="28" type="line" smooth="yes"/>
      <point x="431" y="28"/>
      <point x="509" y="163"/>
      <point x="509" y="361" type="curve" smooth="yes"/>
      <point x="509" y="546"/>
      <point x="429" y="680"/>
      <point x="254" y="680" type="curve" smooth="yes"/>
    </contour>
    <contour>
      <point x="84" y="708" type="line"/>
      <point x="254" y="708" type="line" smooth="yes"/>
      <point x="437" y="708"/>
      <point x="541" y="585"/>
      <point x="541" y="361" type="curve" smooth="yes"/>
      <point x="541" y="124"/>
      <point x="439" y="0"/>
      <point x="250" y="0" type="curve" smooth="yes"/>
      <point x="84" y="0" type="line"/>
    </contour>
  </outline>
</glyph>
<glyph name="E" format="2">
  <advance width="600"/>
  <unicode hex="0045"/>
  <anchor x="302" y="880" name="AccentCenter"/>
  <outline>
    <contour>
      <point x="104" y="708" type="line"/>
      <point x="525" y="708" type="line"/>
      <point x="525" y="680" type="line"/>
      <point x="136" y="680" type="line"/>
      <point x="136" y="381" type="line"/>
      <point x="447" y="381" type="line"/>
      <point x="447" y="353" type="line"/>
      <point x="136" y="353" type="line"/>
      <point x="136" y="28" type="line"/>
      <point x="525" y="28" type="line"/>
      <point x="525" y="0" type="line"/>
      <point x="104" y="0" type="line"/>
    </contour>
  </outline>
</glyph>
<glyph name="F" format="2">
  <advance width="600"/>
  <unicode hex="0046"/>
  <outline>
    <contour>
      <point x="104" y="708" type="line"/>
      <point x="516" y="708" type="line"/>
      <point x="516" y="680" type="line"/>
      <point x="136" y="680" type="line"/>
      <point x="136" y="390" type="line"/>
      <point x="438" y="390" type="line"/>
      <point x="438" y="362" type="line"/>
      <point x="136" y="362" type="line"/>
      <point x="136" y="0" type="line"/>
      <point x="104" y="0" type="line"/>
    </contour>
  </outline>
</glyph>
<glyph name="G" format="2">
  <advance width="612"/>
  <unicode hex="0047"/>
  <outline>
    <contour>
      <point x="346" y="716" type="curve" smooth="yes"/>
      <point x="438" y="716"/>
      <point x="489" y="690"/>
      <point x="538" y="650" type="curve"/>
      <point x="521" y="626" type="line"/>
      <point x="469" y="667"/>
      <point x="430" y="688"/>
      <point x="348" y="688" type="curve" smooth="yes"/>
      <point x="175" y="688"/>
      <point x="112" y="554"/>
      <point x="112" y="352" type="curve" smooth="yes"/>
      <point x="112" y="231"/>
      <point x="133" y="20"/>
      <point x="352" y="20" type="curve" smooth="yes"/>
      <point x="392" y="20"/>
      <point x="458" y="29"/>
      <point x="510" y="45" type="curve"/>
      <point x="510" y="348" type="line"/>
      <point x="288" y="348" type="line"/>
      <point x="288" y="376" type="line"/>
      <point x="542" y="376" type="line"/>
      <point x="542" y="24" type="line"/>
      <point x="485" y="7"/>
      <point x="408" y="-8"/>
      <point x="339" y="-8" type="curve" smooth="yes"/>
      <point x="102" y="-8"/>
      <point x="80" y="225"/>
      <point x="80" y="352" type="curve" smooth="yes"/>
      <point x="80" y="559"/>
      <point x="140" y="716"/>
    </contour>
  </outline>
</glyph>
<glyph name="H" format="2">
  <advance width="576"/>
  <unicode hex="0048"/>
  <outline>
    <contour>
      <point x="100" y="708" type="line"/>
      <point x="132" y="708" type="line"/>
      <point x="132" y="393" type="line"/>
      <point x="468" y="393" type="line"/>
      <point x="468" y="708" type="line"/>
      <point x="500" y="708" type="line"/>
      <point x="500" y="0" type="line"/>
      <point x="468" y="0" type="line"/>
      <point x="468" y="365" type="line"/>
      <point x="132" y="365" type="line"/>
      <point x="132" y="0" type="line"/>
      <point x="100" y="0" type="line"/>
    </contour>
  </outline>
</glyph>
<glyph name="I" format="2">
  <advance width="600"/>
  <unicode hex="0049"/>
  <anchor x="297" y="876" name="AccentCenter"/>
  <outline>
    <contour>
      <point x="108" y="708" type="line"/>
      <point x="492" y="708" type="line"/>
      <point x="492" y="683" type="line"/>
      <point x="315" y="683" type="line"/>
      <point x="315" y="25" type="line"/>
      <point x="492" y="25" type="line"/>
      <point x="492" y="0" type="line"/>
      <point x="108" y="0" type="line"/>
      <point x="108" y="25" type="line"/>
      <point x="283" y="25" type="line"/>
      <point x="283" y="683" type="line"/>
      <point x="108" y="683" type="line"/>
    </contour>
  </outline>
</glyph>
<glyph name="J" format="2">
  <advance width="600"/>
  <unicode hex="004A"/>
  <outline>
    <contour>
      <point x="248" y="708" type="line"/>
      <point x="500" y="708" type="line"/>
      <point x="500" y="212" type="line" smooth="yes"/>
      <point x="500" y="83"/>
      <point x="410" y="-8"/>
      <point x="284" y="-8" type="curve" smooth="yes"/>
      <point x="190" y="-8"/>
      <point x="146" y="15"/>
      <point x="82" y="70" type="curve"/>
      <point x="100" y="95" type="line"/>
      <point x="170" y="38"/>
      <point x="210" y="20"/>
      <point x="284" y="20" type="curve" smooth="yes"/>
      <point x="389" y="20"/>
      <point x="468" y="89"/>
      <point x="468" y="212" type="curve" smooth="yes"/>
      <point x="468" y="680" type="line"/>
      <point x="248" y="680" type="line"/>
    </contour>
  </outline>
</glyph>
<glyph name="K" format="2">
  <advance width="640"/>
  <unicode hex="004B"/>
  <outline>
    <contour>
      <point x="100" y="708" type="line"/>
      <point x="132" y="708" type="line"/>
      <point x="132" y="373" type="line"/>
      <point x="201" y="373" type="line"/>
      <point x="459" y="708" type="line"/>
      <point x="497" y="708" type="line"/>
      <point x="231" y="358" type="line"/>
      <point x="497" y="0" type="line"/>
      <point x="460" y="0" type="line"/>
      <point x="201" y="344" type="line"/>
      <point x="132" y="344" type="line"/>
      <point x="132" y="0" type="line"/>
      <point x="100" y="0" type="line"/>
    </contour>
  </outline>
</glyph>
<glyph name="M" format="2">
  <advance width="600"/>
  <unicode hex="004D"/>
  <outline>
    <contour>
      <point x="92" y="708" type="line"/>
      <point x="134" y="708" type="line"/>
      <point x="293" y="217" type="line"/>
      <point x="441" y="708" type="line"/>
      <point x="484" y="708" type="line"/>
      <point x="484" y="0" type="line"/>
      <point x="452" y="0" type="line"/>
      <point x="452" y="256" type="line"/>
      <point x="452" y="647" type="line"/>
      <point x="314" y="192" type="line"/>
      <point x="270" y="192" type="line"/>
      <point x="124" y="637" type="line"/>
      <point x="124" y="256" type="line"/>
      <point x="124" y="0" type="line"/>
      <point x="92" y="0" type="line"/>
    </contour>
  </outline>
</glyph>
<glyph name="N" format="2">
  <advance width="600"/>
  <unicode hex="004E"/>
  <outline>
    <contour>
      <point x="92" y="708" type="line"/>
      <point x="123" y="708" type="line"/>
      <point x="452" y="68" type="line"/>
      <point x="452" y="708" type="line"/>
      <point x="484" y="708" type="line"/>
      <point x="484" y="0" type="line"/>
      <point x="454" y="0" type="line"/>
      <point x="124" y="646" type="line"/>
      <point x="124" y="0" type="line"/>
      <point x="92" y="0" type="line"/>
    </contour>
  </outline>
</glyph>
<glyph name="O" format="2">
  <advance width="600"/>
  <unicode hex="004F"/>
  <anchor x="300" y="876" name="AccentCenter"/>
  <outline>
    <contour>
      <point x="302" y="716" type="curve" smooth="yes"/>
      <point x="462" y="716"/>
      <point x="524" y="580"/>
      <point x="524" y="357" type="curve" smooth="yes"/>
      <point x="524" y="356"/>
      <point x="524" y="355"/>
      <point x="524" y="354" type="curve" smooth="yes"/>
      <point x="524" y="128"/>
      <point x="463" y="-8"/>
      <point x="302" y="-8" type="curve" smooth="yes"/>
      <point x="140" y="-8"/>
      <point x="76" y="128"/>
      <point x="76" y="354" type="curve" smooth="yes"/>
      <point x="76" y="355"/>
      <point x="76" y="356"/>
      <point x="76" y="357" type="curve" smooth="yes"/>
      <point x="77" y="580"/>
      <point x="141" y="716"/>
    </contour>
    <contour>
      <point x="302" y="688" type="curve" smooth="yes"/>
      <point x="157" y="688"/>
      <point x="108" y="553"/>
      <point x="108" y="357" type="curve" smooth="yes"/>
      <point x="108" y="356"/>
      <point x="108" y="355"/>
      <point x="108" y="354" type="curve" smooth="yes"/>
      <point x="108" y="155"/>
      <point x="156" y="20"/>
      <point x="302" y="20" type="curve" smooth="yes"/>
      <point x="447" y="20"/>
      <point x="492" y="151"/>
      <point x="492" y="354" type="curve" smooth="yes"/>
      <point x="492" y="355"/>
      <point x="492" y="356"/>
      <point x="492" y="357" type="curve" smooth="yes"/>
      <point x="492" y="558"/>
      <point x="446" y="688"/>
    </contour>
  </outline>
</glyph>
<glyph name="Q" format="2">
  <advance width="600"/>
  <unicode hex="0051"/>
  <outline>
    <contour>
      <point x="300" y="688" type="curve" smooth="yes"/>
      <point x="154" y="688"/>
      <point x="96" y="575"/>
      <point x="96" y="355" type="curve" smooth="yes"/>
      <point x="96" y="126"/>
      <point x="154" y="17"/>
      <point x="300" y="17" type="curve" smooth="yes"/>
      <point x="447" y="17"/>
      <point x="504" y="127"/>
      <point x="504" y="355" type="curve" smooth="yes"/>
      <point x="504" y="574"/>
      <point x="447" y="688"/>
    </contour>
    <contour>
      <point x="300" y="716" type="curve" smooth="yes"/>
      <point x="458" y="716"/>
      <point x="536" y="598"/>
      <point x="536" y="355" type="curve" smooth="yes"/>
      <point x="536" y="119"/>
      <point x="478" y="0"/>
      <point x="314" y="-11" type="curve"/>
      <point x="320" y="-128"/>
      <point x="379" y="-153"/>
      <point x="462" y="-153" type="curve" smooth="yes"/>
      <point x="523" y="-153" type="line"/>
      <point x="525" y="-170" type="line"/>
      <point x="511" y="-176"/>
      <point x="475" y="-184"/>
      <point x="447" y="-184" type="curve" smooth="yes"/>
      <point x="341" y="-184"/>
      <point x="290" y="-128"/>
      <point x="282" y="-11" type="curve"/>
      <point x="118" y="0"/>
      <point x="64" y="110"/>
      <point x="64" y="355" type="curve" smooth="yes"/>
      <point x="64" y="598"/>
      <point x="136" y="716"/>
    </contour>
  </outline>
</glyph>
<glyph name="R" format="2">
  <advance width="600"/>
  <unicode hex="0052"/>
  <outline>
    <contour>
      <point x="104" y="708" type="line"/>
      <point x="313.41400146484375" y="708" type="line" smooth="yes"/>
      <point x="442" y="708"/>
      <point x="515" y="643"/>
      <point x="516" y="513" type="curve" smooth="yes"/>
      <point x="515" y="392"/>
      <point x="451" y="320"/>
      <point x="329" y="321" type="curve"/>
      <point x="518" y="0" type="line"/>
      <point x="478" y="0" type="line"/>
      <point x="293" y="320" type="line"/>
      <point x="136" y="320" type="line"/>
      <point x="136" y="0" type="line"/>
      <point x="104" y="0" type="line"/>
    </contour>
    <contour>
      <point x="136" y="348" type="line"/>
      <point x="310" y="348" type="line" smooth="yes"/>
      <point x="430" y="348"/>
      <point x="483" y="401"/>
      <point x="484" y="513" type="curve" smooth="yes"/>
      <point x="483" y="628"/>
      <point x="428" y="680"/>
      <point x="316.41400146484375" y="680.2650146484375" type="curve" smooth="yes"/>
      <point x="136" y="680" type="line"/>
    </contour>
  </outline>
</glyph>
<glyph name="S" format="2">
  <advance width="512"/>
  <unicode hex="0053"/>
  <outline>
    <contour>
      <point x="321" y="716" type="curve" smooth="yes"/>
      <point x="388" y="716"/>
      <point x="462" y="692"/>
      <point x="520" y="648" type="curve"/>
      <point x="504" y="626" type="line"/>
      <point x="439" y="670"/>
      <point x="380" y="688"/>
      <point x="318" y="688" type="curve" smooth="yes"/>
      <point x="181" y="688"/>
      <point x="129" y="632"/>
      <point x="129" y="549" type="curve" smooth="yes"/>
      <point x="129" y="468"/>
      <point x="149" y="420"/>
      <point x="260" y="388" type="curve" smooth="yes"/>
      <point x="373" y="356" type="line" smooth="yes"/>
      <point x="461" y="330"/>
      <point x="529" y="276"/>
      <point x="529" y="170" type="curve"/>
      <point x="529" y="61"/>
      <point x="465" y="-8"/>
      <point x="307" y="-8" type="curve" smooth="yes"/>
      <point x="208" y="-8"/>
      <point x="146" y="15"/>
      <point x="60" y="78" type="curve"/>
      <point x="79" y="103" type="line"/>
      <point x="143" y="47"/>
      <point x="234" y="20"/>
      <point x="309" y="20" type="curve" smooth="yes"/>
      <point x="440" y="20"/>
      <point x="497" y="74"/>
      <point x="497" y="173" type="curve" smooth="yes"/>
      <point x="497" y="259"/>
      <point x="441" y="305"/>
      <point x="363" y="327" type="curve" smooth="yes"/>
      <point x="251" y="358" type="line" smooth="yes"/>
      <point x="137" y="390"/>
      <point x="97" y="452"/>
      <point x="97" y="543" type="curve" smooth="yes"/>
      <point x="97" y="641"/>
      <point x="152" y="716"/>
    </contour>
  </outline>
</glyph>
<glyph name="T" format="2">
  <advance width="600"/>
  <unicode hex="0054"/>
  <outline>
    <contour>
      <point x="73" y="708" type="line"/>
      <point x="527" y="708" type="line"/>
      <point x="527" y="680" type="line"/>
      <point x="319" y="680" type="line"/>
      <point x="319" y="0" type="line"/>
      <point x="287" y="0" type="line"/>
      <point x="287" y="680" type="line"/>
      <point x="73" y="680" type="line"/>
    </contour>
  </outline>
</glyph>
<glyph name="U" format="2">
  <advance width="576"/>
  <unicode hex="0055"/>
  <anchor x="278.8" y="880" name="AccentCenter"/>
  <outline>
    <contour>
      <point x="100" y="708" type="line"/>
      <point x="132" y="708" type="line"/>
      <point x="132" y="228.5" type="line" smooth="yes"/>
      <point x="132" y="72.6964"/>
      <point x="213.589" y="19.8938"/>
      <point x="315.505" y="20" type="curve" smooth="yes"/>
      <point x="417.42" y="20.1062"/>
      <point x="499" y="72.6965"/>
      <point x="499" y="228.5" type="curve" smooth="yes"/>
      <point x="499" y="708" type="line"/>
      <point x="531" y="708" type="line"/>
      <point x="531" y="228.5" type="line" smooth="yes"/>
      <point x="531" y="70.0476"/>
      <point x="444.911" y="-8"/>
      <point x="315.505" y="-8" type="curve" smooth="yes"/>
      <point x="186.098" y="-8"/>
      <point x="100" y="68.0476"/>
      <point x="100" y="228.5" type="curve" smooth="yes"/>
    </contour>
  </outline>
</glyph>
<glyph name="W" format="2">
  <advance width="640"/>
  <unicode hex="0057"/>
  <outline>
    <contour>
      <point x="40" y="708" type="line"/>
      <point x="75" y="708" type="line"/>
      <point x="170" y="31" type="line"/>
      <point x="301" y="483" type="line"/>
      <point x="327" y="483" type="line"/>
      <point x="445" y="31" type="line"/>
      <point x="525" y="708" type="line"/>
      <point x="560" y="708" type="line"/>
      <point x="469" y="0" type="line"/>
      <point x="426" y="0" type="line"/>
      <point x="314" y="403" type="line"/>
      <point x="192" y="0" type="line"/>
      <point x="145" y="0" type="line"/>
    </contour>
  </outline>
</glyph>
<glyph name="X" format="2">
  <advance width="600"/>
  <unicode hex="0058"/>
  <outline>
    <contour>
      <point x="58" y="708" type="line"/>
      <point x="100" y="708" type="line"/>
      <point x="301" y="381" type="line"/>
      <point x="502" y="708" type="line"/>
      <point x="542" y="708" type="line"/>
      <point x="320" y="356" type="line"/>
      <point x="542" y="0" type="line"/>
      <point x="502" y="0" type="line"/>
      <point x="301" y="332" type="line"/>
      <point x="100" y="0" type="line"/>
      <point x="58" y="0" type="line"/>
      <point x="283" y="356" type="line"/>
    </contour>
  </outline>
</glyph>
<glyph name="Y" format="2">
  <advance width="612"/>
  <unicode hex="0059"/>
  <anchor x="282.8" y="880" name="AccentCenter"/>
  <outline>
    <contour>
      <point x="40" y="708" type="line"/>
      <point x="79" y="708" type="line"/>
      <point x="290" y="304" type="line"/>
      <point x="503" y="708" type="line"/>
      <point x="541" y="708" type="line"/>
      <point x="309" y="268" type="line"/>
      <point x="309" y="0" type="line"/>
      <point x="277" y="0" type="line"/>
      <point x="277" y="268" type="line"/>
    </contour>
  </outline>
</glyph>
<glyph name="Z" format="2">
  <advance width="640"/>
  <unicode hex="005A"/>
  <outline>
    <contour>
      <point x="77" y="708" type="line"/>
      <point x="508" y="708" type="line"/>
      <point x="508" y="680" type="line"/>
      <point x="102" y="28" type="line"/>
      <point x="505" y="28" type="line"/>
      <point x="505" y="0" type="line"/>
      <point x="64" y="0" type="line"/>
      <point x="64" y="28" type="line"/>
      <point x="470" y="680" type="line"/>
      <point x="77" y="680" type="line"/>
    </contour>
  </outline>
</glyph>
<glyph name="backslash" format="2">
  <advance width="600"/>
  <unicode hex="005C"/>
  <outline>
    <contour>
      <point x="116" y="772" type="line"/>
      <point x="141" y="772" type="line"/>
      <point x="484" y="-34" type="line"/>
      <point x="459" y="-34" type="line"/>
    </contour>
  </outline>
</glyph>
<glyph name="asciicircum" format="2">
  <advance width="600"/>
  <unicode hex="005E"/>
  <outline>
    <contour>
      <point x="72.2" y="717.6" type="line"/>
      <point x="206.4" y="852" type="line"/>
      <point x="274.6" y="852" type="line"/>
      <point x="408.8" y="717.6" type="line"/>
      <point x="364" y="665.4" type="line"/>
      <point x="241" y="784.4" type="line"/>
      <point x="118" y="665.4" type="line"/>
    </contour>
  </outline>
</glyph>
<glyph name="underscore" format="2">
  <advance width="612"/>
  <unicode hex="005F"/>
  <outline>
    <contour>
      <point x="90.2" y="0" type="line"/>
      <point x="499.2" y="0" type="line"/>
      <point x="499.2" y="-47.2" type="line"/>
      <point x="90.2" y="-47.2" type="line"/>
    </contour>
  </outline>
</glyph>
<glyph name="grave" format="2">
  <advance width="640"/>
  <unicode hex="0060"/>
  <outline>
    <contour>
      <point x="72.0266" y="901.047" type="line"/>
      <point x="227.494" y="745.879" type="line"/>
      <point x="199.67" y="720.565" type="line"/>
      <point x="44.9946" y="873.523" type="line"/>
    </contour>
  </outline>
</glyph>
<glyph name="a" format="2">
  <advance width="600"/>
  <unicode hex="0061"/>
  <anchor x="246" y="687" name="AccentCenter"/>
  <anchor x="236" y="687" name="Ring"/>
  <outline>
    <contour>
      <point x="267" y="528" type="curve" smooth="yes"/>
      <point x="380" y="528"/>
      <point x="453" y="474"/>
      <point x="453" y="345" type="curve" smooth="yes"/>
      <point x="453" y="28" type="line" smooth="yes"/>
      <point x="453" y="28"/>
      <point x="544" y="28"/>
      <point x="544" y="28" type="curve"/>
      <point x="544" y="0" type="line"/>
      <point x="544" y="0"/>
      <point x="421" y="0"/>
      <point x="421" y="0" type="curve" smooth="yes"/>
      <point x="421" y="0"/>
      <point x="421" y="101"/>
      <point x="421" y="101" type="curve"/>
      <point x="393" y="48"/>
      <point x="345" y="-8"/>
      <point x="252" y="-8" type="curve" smooth="yes"/>
      <point x="141" y="-8"/>
      <point x="80" y="45"/>
      <point x="80" y="137" type="curve" smooth="yes"/>
      <point x="80" y="246"/>
      <point x="161" y="286"/>
      <point x="269" y="286" type="curve" smooth="yes"/>
      <point x="421" y="286" type="line"/>
      <point x="421" y="359" type="line" smooth="yes"/>
      <point x="421" y="453"/>
      <point x="361" y="500"/>
      <point x="267" y="500" type="curve" smooth="yes"/>
      <point x="207" y="500"/>
      <point x="169" y="486"/>
      <point x="125" y="465" type="curve"/>
      <point x="115" y="491" type="line"/>
      <point x="160" y="510"/>
      <point x="191" y="528"/>
    </contour>
    <contour>
      <point x="421" y="258" type="line"/>
      <point x="270" y="258" type="line" smooth="yes"/>
      <point x="167" y="258"/>
      <point x="112" y="221"/>
      <point x="112" y="137" type="curve" smooth="yes"/>
      <point x="112" y="61"/>
      <point x="160" y="20"/>
      <point x="253" y="20" type="curve" smooth="yes"/>
      <point x="341" y="20"/>
      <point x="390" y="78"/>
      <point x="421" y="141" type="curve"/>
    </contour>
  </outline>
</glyph>
<glyph name="b" format="2">
  <advance width="600"/>
  <unicode hex="0062"/>
  <outline>
    <contour>
      <point x="104" y="716" type="line"/>
      <point x="136" y="716" type="line"/>
      <point x="136" y="438" type="line"/>
      <point x="165" y="483"/>
      <point x="225" y="528"/>
      <point x="312" y="528" type="curve" smooth="yes"/>
      <point x="463" y="528"/>
      <point x="532" y="437"/>
      <point x="532" y="269" type="curve" smooth="yes"/>
      <point x="532" y="89"/>
      <point x="463" y="-8"/>
      <point x="312" y="-8" type="curve" smooth="yes"/>
      <point x="221" y="-8"/>
      <point x="167" y="37"/>
      <point x="134" y="103" type="curve"/>
      <point x="132" y="0" type="line"/>
      <point x="104" y="0" type="line"/>
    </contour>
    <contour>
      <point x="312" y="500" type="curve" smooth="yes"/>
      <point x="215" y="500"/>
      <point x="155" y="442"/>
      <point x="136" y="381" type="curve"/>
      <point x="136" y="145" type="line"/>
      <point x="162" y="90"/>
      <point x="217" y="20"/>
      <point x="312" y="20" type="curve" smooth="yes"/>
      <point x="446" y="20"/>
      <point x="500" y="126"/>
      <point x="500" y="267" type="curve" smooth="yes"/>
      <point x="500" y="403"/>
      <point x="449" y="500"/>
    </contour>
  </outline>
</glyph>
<glyph name="c" format="2">
  <advance width="600"/>
  <unicode hex="0063"/>
  <outline>
    <contour>
      <point x="345" y="528" type="curve" smooth="yes"/>
      <point x="422" y="528"/>
      <point x="469" y="499"/>
      <point x="512" y="460" type="curve"/>
      <point x="494" y="438" type="line"/>
      <point x="457" y="473"/>
      <point x="409" y="500"/>
      <point x="347" y="500" type="curve" smooth="yes"/>
      <point x="205" y="500"/>
      <point x="141" y="400"/>
      <point x="141" y="260" type="curve" smooth="yes"/>
      <point x="141" y="132"/>
      <point x="199" y="20"/>
      <point x="343" y="20" type="curve" smooth="yes"/>
      <point x="416" y="20"/>
      <point x="472" y="49"/>
      <point x="514" y="89" type="curve"/>
      <point x="531" y="65" type="line"/>
      <point x="486" y="22"/>
      <point x="421" y="-8"/>
      <point x="342" y="-8" type="curve" smooth="yes"/>
      <point x="180" y="-8"/>
      <point x="109" y="99"/>
      <point x="109" y="260" type="curve" smooth="yes"/>
      <point x="109" y="420"/>
      <point x="190" y="528"/>
    </contour>
  </outline>
</glyph>
<glyph name="d" format="2">
  <advance width="512"/>
  <unicode hex="0064"/>
  <outline>
    <contour>
      <point x="380" y="724" type="line"/>
      <point x="412" y="724" type="line"/>
      <point x="412" y="0" type="line"/>
      <point x="387" y="0" type="line"/>
      <point x="381" y="100" type="line"/>
      <point x="368" y="41"/>
      <point x="322" y="-8"/>
      <point x="234" y="-8" type="curve" smooth="yes"/>
      <point x="118" y="-8"/>
      <point x="48" y="71"/>
      <point x="48" y="267" type="curve" smooth="yes"/>
      <point x="48" y="431"/>
      <point x="120" y="528"/>
      <point x="240" y="528" type="curve" smooth="yes"/>
      <point x="344" y="528"/>
      <point x="378" y="449"/>
      <point x="380" y="432" type="curve"/>
    </contour>
    <contour>
      <point x="239" y="500" type="curve" smooth="yes"/>
      <point x="136" y="500"/>
      <point x="80" y="396"/>
      <point x="80" y="264" type="curve" smooth="yes"/>
      <point x="80" y="89"/>
      <point x="140" y="20"/>
      <point x="242" y="20" type="curve" smooth="yes"/>
      <point x="326" y="20"/>
      <point x="368" y="84"/>
      <point x="380" y="141" type="curve"/>
      <point x="380" y="388" type="line"/>
      <point x="353" y="454"/>
      <point x="315" y="500"/>
    </contour>
  </outline>
</glyph>
<glyph name="e" format="2">
  <advance width="600"/>
  <unicode hex="0065"/>
  <anchor x="314" y="687" name="AccentCenter"/>
  <outline>
    <contour>
      <point x="311" y="528" type="curve" smooth="yes"/>
      <point x="430" y="528"/>
      <point x="509" y="448"/>
      <point x="509" y="306" type="curve" smooth="yes"/>
      <point x="509" y="305"/>
      <point x="509" y="303"/>
      <point x="509" y="302" type="curve" smooth="yes"/>
      <point x="509" y="287"/>
      <point x="506" y="263"/>
      <point x="504" y="257" type="curve"/>
      <point x="128" y="257" type="line"/>
      <point x="128" y="256"/>
      <point x="128" y="255"/>
      <point x="128" y="254" type="curve" smooth="yes"/>
      <point x="128" y="107"/>
      <point x="198" y="20"/>
      <point x="336" y="20" type="curve" smooth="yes"/>
      <point x="399" y="20"/>
      <point x="457" y="49"/>
      <point x="500" y="77" type="curve"/>
      <point x="515" y="49" type="line"/>
      <point x="468" y="23"/>
      <point x="402" y="-8"/>
      <point x="334" y="-8" type="curve" smooth="yes"/>
      <point x="181" y="-8"/>
      <point x="96" y="80"/>
      <point x="96" y="268" type="curve" smooth="yes"/>
      <point x="96" y="269"/>
      <point x="96" y="270"/>
      <point x="96" y="272" type="curve" smooth="yes"/>
      <point x="97" y="439"/>
      <point x="186" y="528"/>
    </contour>
    <contour>
      <point x="311" y="500" type="curve" smooth="yes"/>
      <point x="215" y="500"/>
      <point x="128" y="429"/>
      <point x="128" y="287" type="curve" smooth="yes"/>
      <point x="128" y="286"/>
      <point x="128" y="284"/>
      <point x="128" y="283" type="curve"/>
      <point x="475" y="283" type="line"/>
      <point x="475" y="322" type="line" smooth="yes"/>
      <point x="475" y="432"/>
      <point x="404" y="500"/>
    </contour>
  </outline>
</glyph>
<glyph name="f" format="2">
  <advance width="600"/>
  <unicode hex="0066"/>
  <outline>
    <contour>
      <point x="404" y="780" type="curve" smooth="yes"/>
      <point x="462" y="780"/>
      <point x="488" y="773"/>
      <point x="525" y="763" type="curve"/>
      <point x="519" y="734" type="line"/>
      <point x="480" y="745"/>
      <point x="459" y="751"/>
      <point x="407" y="751" type="curve" smooth="yes"/>
      <point x="339" y="751"/>
      <point x="281" y="711"/>
      <point x="281" y="636" type="curve" smooth="yes"/>
      <point x="281" y="520" type="line"/>
      <point x="471" y="520" type="line"/>
      <point x="471" y="492" type="line"/>
      <point x="281" y="492" type="line"/>
      <point x="281" y="0" type="line"/>
      <point x="249" y="0" type="line"/>
      <point x="249" y="492" type="line"/>
      <point x="73" y="492" type="line"/>
      <point x="73" y="520" type="line"/>
      <point x="249" y="520" type="line"/>
      <point x="249" y="636" type="line" smooth="yes"/>
      <point x="249" y="708"/>
      <point x="303" y="780"/>
    </contour>
  </outline>
</glyph>
<glyph name="g" format="2">
  <advance width="600"/>
  <unicode hex="0067"/>
  <outline>
    <contour>
      <point x="282" y="500" type="curve" smooth="yes"/>
      <point x="190" y="500"/>
      <point x="119" y="460"/>
      <point x="119" y="367" type="curve" smooth="yes"/>
      <point x="119" y="259"/>
      <point x="182" y="227"/>
      <point x="281" y="227" type="curve" smooth="yes"/>
      <point x="361" y="227"/>
      <point x="446" y="259"/>
      <point x="446" y="365" type="curve" smooth="yes"/>
      <point x="446" y="460"/>
      <point x="361" y="500"/>
    </contour>
    <contour>
      <point x="282" y="528" type="curve" smooth="yes"/>
      <point x="328" y="528"/>
      <point x="371" y="519"/>
      <point x="414" y="494" type="curve"/>
      <point x="421" y="510"/>
      <point x="454" y="520"/>
      <point x="478" y="520" type="curve" smooth="yes"/>
      <point x="542" y="520" type="line"/>
      <point x="542" y="489" type="line"/>
      <point x="420" y="489" type="line"/>
      <point x="438" y="476"/>
      <point x="478" y="440"/>
      <point x="478" y="365" type="curve" smooth="yes"/>
      <point x="478" y="250"/>
      <point x="404" y="205"/>
      <point x="283" y="199" type="curve" smooth="yes"/>
      <point x="177" y="193"/>
      <point x="134" y="142"/>
      <point x="116" y="104" type="curve" smooth="yes"/>
      <point x="116" y="104"/>
      <point x="116" y="103"/>
      <point x="116" y="103" type="curve" smooth="yes"/>
      <point x="394" y="71" type="line" smooth="yes"/>
      <point x="475" y="62"/>
      <point x="537" y="25"/>
      <point x="537" y="-43" type="curve" smooth="yes"/>
      <point x="537" y="-134"/>
      <point x="474" y="-192"/>
      <point x="298" y="-192" type="curve" smooth="yes"/>
      <point x="169" y="-192"/>
      <point x="86" y="-141"/>
      <point x="42" y="-109" type="curve"/>
      <point x="58" y="-85" type="line"/>
      <point x="92" y="-113"/>
      <point x="194" y="-164"/>
      <point x="298" y="-164" type="curve" smooth="yes"/>
      <point x="441" y="-164"/>
      <point x="505" y="-122"/>
      <point x="505" y="-47" type="curve" smooth="yes"/>
      <point x="505" y="10"/>
      <point x="453" y="36"/>
      <point x="394" y="43" type="curve" smooth="yes"/>
      <point x="79" y="79" type="line" smooth="yes"/>
      <point x="79" y="79"/>
      <point x="82" y="107"/>
      <point x="82" y="107" type="curve" smooth="yes"/>
      <point x="99" y="148"/>
      <point x="139" y="198"/>
      <point x="213" y="213" type="curve"/>
      <point x="138" y="226"/>
      <point x="87" y="271"/>
      <point x="87" y="367" type="curve" smooth="yes"/>
      <point x="87" y="470"/>
      <point x="165" y="528"/>
    </contour>
  </outline>
</glyph>
<glyph name="h" format="2">
  <advance width="512"/>
  <unicode hex="0068"/>
  <outline>
    <contour>
      <point x="100" y="706" type="line"/>
      <point x="132" y="706" type="line"/>
      <point x="132" y="440" type="line"/>
      <point x="167" y="494.986"/>
      <point x="224" y="528"/>
      <point x="284" y="528" type="curve" smooth="yes"/>
      <point x="397" y="528"/>
      <point x="448" y="459"/>
      <point x="448" y="329" type="curve" smooth="yes"/>
      <point x="448" y="0" type="line"/>
      <point x="417" y="0" type="line"/>
      <point x="417" y="334" type="line" smooth="yes"/>
      <point x="417" y="445"/>
      <point x="371" y="500"/>
      <point x="283" y="500" type="curve" smooth="yes"/>
      <point x="216" y="500"/>
      <point x="168.296" y="455.036"/>
      <point x="132" y="398" type="curve"/>
      <point x="132" y="0" type="line"/>
      <point x="100" y="0" type="line"/>
    </contour>
  </outline>
</glyph>
<glyph name="i" format="2">
  <advance width="640"/>
  <unicode hex="0069"/>
  <outline>
    <contour>
      <point x="283" y="731" type="curve" smooth="yes"/>
      <point x="305" y="731"/>
      <point x="322" y="714"/>
      <point x="322" y="692" type="curve" smooth="yes"/>
      <point x="322" y="670"/>
      <point x="305" y="654"/>
      <point x="283" y="654" type="curve" smooth="yes"/>
      <point x="261" y="654"/>
      <point x="245" y="670"/>
      <point x="245" y="692" type="curve" smooth="yes"/>
      <point x="245" y="714"/>
      <point x="261" y="731"/>
    </contour>
    <component base="dotlessi" xOffset="-3.6"/>
  </outline>
</glyph>
<glyph name="j" format="2">
  <advance width="640"/>
  <unicode hex="006A"/>
  <outline>
    <contour>
      <point x="424" y="731" type="curve" smooth="yes"/>
      <point x="449" y="731"/>
      <point x="463" y="710"/>
      <point x="463" y="693" type="curve" smooth="yes"/>
      <point x="463" y="673"/>
      <point x="449" y="654"/>
      <point x="424" y="654" type="curve" smooth="yes"/>
      <point x="405" y="654"/>
      <point x="387" y="667"/>
      <point x="387" y="693" type="curve" smooth="yes"/>
      <point x="387" y="717"/>
      <point x="405" y="731"/>
    </contour>
    <contour>
      <point x="166" y="520" type="line"/>
      <point x="443" y="520" type="line"/>
      <point x="443" y="-3" type="line"/>
      <point x="443" y="-125"/>
      <point x="357" y="-191"/>
      <point x="261" y="-191" type="curve" smooth="yes"/>
      <point x="172" y="-191"/>
      <point x="127" y="-157"/>
      <point x="73" y="-122" type="curve"/>
      <point x="90" y="-95" type="line"/>
      <point x="146" y="-134"/>
      <point x="185" y="-163"/>
      <point x="259" y="-163" type="curve" smooth="yes"/>
      <point x="339" y="-163"/>
      <point x="411" y="-117"/>
      <point x="411" y="-9" type="curve" smooth="yes"/>
      <point x="411" y="492" type="line"/>
      <point x="166" y="492" type="line"/>
    </contour>
  </outline>
</glyph>
<glyph name="k" format="2">
  <advance width="600"/>
  <unicode hex="006B"/>
  <outline>
    <contour>
      <point x="104" y="708" type="line"/>
      <point x="136" y="708" type="line"/>
      <point x="136" y="291" type="line"/>
      <point x="270" y="291" type="line"/>
      <point x="494" y="521" type="line"/>
      <point x="536" y="521" type="line"/>
      <point x="298" y="276" type="line"/>
      <point x="532" y="0" type="line"/>
      <point x="490" y="0" type="line"/>
      <point x="270" y="263" type="line"/>
      <point x="136" y="263" type="line"/>
      <point x="136" y="0" type="line"/>
      <point x="104" y="0" type="line"/>
    </contour>
  </outline>
</glyph>
<glyph name="l" format="2">
  <advance width="640"/>
  <unicode hex="006C"/>
  <outline>
    <contour>
      <point x="54" y="724" type="line"/>
      <point x="282" y="724" type="line"/>
      <point x="282" y="28" type="line"/>
      <point x="493" y="28" type="line"/>
      <point x="493" y="0" type="line"/>
      <point x="250" y="0" type="line"/>
      <point x="250" y="696" type="line"/>
      <point x="54" y="696" type="line"/>
    </contour>
  </outline>
</glyph>
<glyph name="m" format="2">
  <advance width="600"/>
  <unicode hex="006D"/>
  <outline>
    <contour>
      <point x="92" y="520" type="line"/>
      <point x="121" y="520" type="line"/>
      <point x="124" y="446" type="line"/>
      <point x="151" y="495"/>
      <point x="187" y="528"/>
      <point x="225" y="528" type="curve" smooth="yes"/>
      <point x="275" y="528"/>
      <point x="306" y="500"/>
      <point x="325" y="434" type="curve"/>
      <point x="359" y="491"/>
      <point x="393" y="528"/>
      <point x="444" y="528" type="curve" smooth="yes"/>
      <point x="503" y="528"/>
      <point x="548" y="494"/>
      <point x="548" y="382" type="curve" smooth="yes"/>
      <point x="548" y="0" type="line"/>
      <point x="517" y="0" type="line"/>
      <point x="517" y="381" type="line" smooth="yes"/>
      <point x="517" y="469"/>
      <point x="494" y="500"/>
      <point x="442" y="500" type="curve" smooth="yes"/>
      <point x="381" y="500"/>
      <point x="355" y="440"/>
      <point x="330" y="392" type="curve"/>
      <point x="330" y="0" type="line"/>
      <point x="298" y="0" type="line"/>
      <point x="298" y="392" type="line" smooth="yes"/>
      <point x="298" y="471"/>
      <point x="271" y="500"/>
      <point x="226" y="500" type="curve" smooth="yes"/>
      <point x="189" y="500"/>
      <point x="164" y="474"/>
      <point x="124" y="416" type="curve"/>
      <point x="124" y="0" type="line"/>
      <point x="92" y="0" type="line"/>
    </contour>
  </outline>
</glyph>
<glyph name="n" format="2">
  <advance width="640"/>
  <unicode hex="006E"/>
  <anchor x="274.4" y="687" name="AccentCenter"/>
  <outline>
    <contour>
      <point x="92" y="520" type="line"/>
      <point x="112" y="520" type="line"/>
      <point x="124" y="421" type="line"/>
      <point x="150" y="477"/>
      <point x="241" y="528"/>
      <point x="343" y="528" type="curve" smooth="yes"/>
      <point x="466" y="528"/>
      <point x="548" y="481"/>
      <point x="548" y="352" type="curve" smooth="yes"/>
      <point x="548" y="0" type="line"/>
      <point x="516" y="0" type="line"/>
      <point x="516" y="352" type="line" smooth="yes"/>
      <point x="516" y="454"/>
      <point x="450" y="500"/>
      <point x="335" y="500" type="curve" smooth="yes"/>
      <point x="243" y="500"/>
      <point x="162" y="448"/>
      <point x="124" y="392" type="curve"/>
      <point x="124" y="0" type="line"/>
      <point x="92" y="0" type="line"/>
    </contour>
  </outline>
</glyph>
<glyph name="o" format="2">
  <advance width="640"/>
  <unicode hex="006F"/>
  <anchor x="317" y="687" name="AccentCenter"/>
  <outline>
    <contour>
      <point x="319" y="500" type="curve" smooth="yes"/>
      <point x="185" y="500"/>
      <point x="112" y="433"/>
      <point x="112" y="257" type="curve" smooth="yes"/>
      <point x="112" y="83"/>
      <point x="183" y="20"/>
      <point x="316" y="20" type="curve" smooth="yes"/>
      <point x="451" y="20"/>
      <point x="528" y="85"/>
      <point x="528" y="260" type="curve" smooth="yes"/>
      <point x="528" y="435"/>
      <point x="451" y="500"/>
    </contour>
    <contour>
      <point x="319" y="528" type="curve" smooth="yes"/>
      <point x="492" y="528"/>
      <point x="560" y="425"/>
      <point x="560" y="257" type="curve" smooth="yes"/>
      <point x="560" y="98"/>
      <point x="485" y="-8"/>
      <point x="316" y="-8" type="curve" smooth="yes"/>
      <point x="148" y="-8"/>
      <point x="80" y="96"/>
      <point x="80" y="259" type="curve" smooth="yes"/>
      <point x="80" y="426"/>
      <point x="146" y="528"/>
    </contour>
  </outline>
</glyph>
<glyph name="p" format="2">
  <advance width="640"/>
  <unicode hex="0070"/>
  <outline>
    <contour>
      <point x="288" y="500" type="curve" smooth="yes"/>
      <point x="207" y="500"/>
      <point x="152" y="442"/>
      <point x="124" y="398" type="curve"/>
      <point x="124" y="127" type="line"/>
      <point x="166" y="56"/>
      <point x="208" y="20"/>
      <point x="292" y="20" type="curve" smooth="yes"/>
      <point x="403" y="20"/>
      <point x="473" y="118"/>
      <point x="473" y="265" type="curve" smooth="yes"/>
      <point x="473" y="421"/>
      <point x="399" y="500"/>
    </contour>
    <contour>
      <point x="92" y="520" type="line"/>
      <point x="115" y="520" type="line"/>
      <point x="124" y="436" type="line"/>
      <point x="165" y="492"/>
      <point x="212" y="528"/>
      <point x="299" y="528" type="curve" smooth="yes"/>
      <point x="425" y="528"/>
      <point x="505" y="437"/>
      <point x="505" y="261" type="curve" smooth="yes"/>
      <point x="505" y="98"/>
      <point x="416" y="-8"/>
      <point x="295" y="-8" type="curve" smooth="yes"/>
      <point x="250" y="-8"/>
      <point x="173" y="8"/>
      <point x="124" y="79" type="curve"/>
      <point x="124" y="-192" type="line"/>
      <point x="92" y="-192" type="line"/>
    </contour>
  </outline>
</glyph>
<glyph name="q" format="2">
  <advance width="600"/>
  <unicode hex="0071"/>
  <outline>
    <contour>
      <point x="297" y="500" type="curve" smooth="yes"/>
      <point x="178" y="500"/>
      <point x="112" y="421"/>
      <point x="112" y="265" type="curve" smooth="yes"/>
      <point x="112" y="118"/>
      <point x="174" y="20"/>
      <point x="293" y="20" type="curve" smooth="yes"/>
      <point x="384" y="20"/>
      <point x="433" y="56"/>
      <point x="476" y="127" type="curve"/>
      <point x="476" y="398" type="line"/>
      <point x="447" y="442"/>
      <point x="385" y="500"/>
    </contour>
    <contour>
      <point x="485" y="520" type="line"/>
      <point x="508" y="520" type="line"/>
      <point x="508" y="-192" type="line"/>
      <point x="476" y="-192" type="line"/>
      <point x="476" y="79" type="line"/>
      <point x="425" y="8"/>
      <point x="338" y="-8"/>
      <point x="290" y="-8" type="curve" smooth="yes"/>
      <point x="160" y="-8"/>
      <point x="80" y="98"/>
      <point x="80" y="261" type="curve" smooth="yes"/>
      <point x="80" y="437"/>
      <point x="150" y="528"/>
      <point x="286" y="528" type="curve" smooth="yes"/>
      <point x="379" y="528"/>
      <point x="434" y="492"/>
      <point x="476" y="436" type="curve"/>
    </contour>
  </outline>
</glyph>
<glyph name="r" format="2">
  <advance width="600"/>
  <unicode hex="0072"/>
  <outline>
    <contour>
      <point x="131" y="520" type="line"/>
      <point x="193" y="402" type="line"/>
      <point x="234" y="464"/>
      <point x="288" y="528"/>
      <point x="401" y="528" type="curve" smooth="yes"/>
      <point x="454" y="528"/>
      <point x="482" y="522"/>
      <point x="530" y="505" type="curve"/>
      <point x="520" y="476" type="line"/>
      <point x="474" y="493"/>
      <point x="444" y="500"/>
      <point x="402" y="500" type="curve" smooth="yes"/>
      <point x="300" y="500"/>
      <point x="251" y="440"/>
      <point x="210" y="367" type="curve"/>
      <point x="210" y="0" type="line"/>
      <point x="178" y="0" type="line"/>
      <point x="178" y="369" type="line"/>
      <point x="86" y="520" type="line"/>
    </contour>
  </outline>
</glyph>
<glyph name="s" format="2">
  <advance width="612"/>
  <unicode hex="0073"/>
  <outline>
    <contour>
      <point x="318" y="528" type="curve" smooth="yes"/>
      <point x="383" y="528"/>
      <point x="440" y="510"/>
      <point x="501" y="467" type="curve"/>
      <point x="482" y="445" type="line"/>
      <point x="430" y="486"/>
      <point x="367" y="500"/>
      <point x="318" y="500" type="curve" smooth="yes"/>
      <point x="222" y="500"/>
      <point x="150" y="459"/>
      <point x="150" y="393" type="curve" smooth="yes"/>
      <point x="150" y="338"/>
      <point x="187" y="313"/>
      <point x="250" y="294" type="curve"/>
      <point x="381" y="265" type="line" smooth="yes"/>
      <point x="460" y="248"/>
      <point x="516" y="216"/>
      <point x="516" y="136" type="curve" smooth="yes"/>
      <point x="516" y="31"/>
      <point x="409" y="-8"/>
      <point x="306" y="-8" type="curve" smooth="yes"/>
      <point x="224" y="-8"/>
      <point x="151" y="16"/>
      <point x="98" y="63" type="curve"/>
      <point x="116" y="86" type="line"/>
      <point x="161" y="47"/>
      <point x="238" y="20"/>
      <point x="304" y="20" type="curve" smooth="yes"/>
      <point x="394" y="20"/>
      <point x="484" y="47"/>
      <point x="484" y="136" type="curve" smooth="yes"/>
      <point x="484" y="187"/>
      <point x="453" y="219"/>
      <point x="370" y="238" type="curve" smooth="yes"/>
      <point x="239" y="267" type="line" smooth="yes"/>
      <point x="194" y="277"/>
      <point x="120" y="298"/>
      <point x="120" y="392" type="curve" smooth="yes"/>
      <point x="120" y="465"/>
      <point x="191" y="528"/>
    </contour>
  </outline>
</glyph>
<glyph name="t" format="2">
  <advance width="600"/>
  <unicode hex="0074"/>
  <outline>
    <contour>
      <point x="254" y="671" type="line"/>
      <point x="286" y="687" type="line"/>
      <point x="286" y="520" type="line"/>
      <point x="482" y="520" type="line"/>
      <point x="482" y="492" type="line"/>
      <point x="286" y="492" type="line"/>
      <point x="286" y="121" type="line" smooth="yes"/>
      <point x="286" y="55"/>
      <point x="332" y="19"/>
      <point x="389" y="19" type="curve" smooth="yes"/>
      <point x="434" y="19"/>
      <point x="460" y="24"/>
      <point x="505" y="44" type="curve"/>
      <point x="515" y="19" type="line"/>
      <point x="467" y="-1"/>
      <point x="441" y="-8"/>
      <point x="390" y="-8" type="curve" smooth="yes"/>
      <point x="310" y="-8"/>
      <point x="254" y="39"/>
      <point x="254" y="121" type="curve" smooth="yes"/>
      <point x="254" y="492" type="line"/>
      <point x="91" y="492" type="line"/>
      <point x="91" y="520" type="line"/>
      <point x="254" y="520" type="line"/>
    </contour>
  </outline>
</glyph>
<glyph name="u" format="2">
  <advance width="640"/>
  <unicode hex="0075"/>
  <anchor x="276" y="687" name="AccentCenter"/>
  <outline>
    <contour>
      <point x="100" y="520" type="line"/>
      <point x="132" y="520" type="line"/>
      <point x="132" y="172" type="line" smooth="yes"/>
      <point x="132" y="67"/>
      <point x="199" y="20"/>
      <point x="282" y="20" type="curve" smooth="yes"/>
      <point x="363" y="20"/>
      <point x="460" y="64"/>
      <point x="508" y="124" type="curve"/>
      <point x="508" y="520" type="line"/>
      <point x="540" y="520" type="line"/>
      <point x="540" y="0" type="line"/>
      <point x="514" y="0" type="line"/>
      <point x="509" y="94" type="line"/>
      <point x="483" y="56"/>
      <point x="383" y="-8"/>
      <point x="281" y="-8" type="curve" smooth="yes"/>
      <point x="157" y="-8"/>
      <point x="100" y="55"/>
      <point x="100" y="170" type="curve" smooth="yes"/>
    </contour>
  </outline>
</glyph>
<glyph name="v" format="2">
  <advance width="600"/>
  <unicode hex="0076"/>
  <outline>
    <contour>
      <point x="71" y="520" type="line"/>
      <point x="111" y="520" type="line"/>
      <point x="310" y="35" type="line"/>
      <point x="500" y="520" type="line"/>
      <point x="541" y="520" type="line"/>
      <point x="329" y="0" type="line"/>
      <point x="290" y="0" type="line"/>
    </contour>
  </outline>
</glyph>
<glyph name="w" format="2">
  <advance width="640"/>
  <unicode hex="0077"/>
  <outline>
    <contour>
      <point x="32" y="520" type="line"/>
      <point x="66" y="520" type="line"/>
      <point x="169" y="37" type="line"/>
      <point x="292" y="398" type="line"/>
      <point x="349" y="398" type="line"/>
      <point x="465" y="37" type="line"/>
      <point x="575" y="520" type="line"/>
      <point x="608" y="520" type="line"/>
      <point x="489" y="0" type="line"/>
      <point x="441" y="0" type="line"/>
      <point x="321" y="366" type="line"/>
      <point x="191" y="0" type="line"/>
      <point x="147" y="0" type="line"/>
    </contour>
  </outline>
</glyph>
<glyph name="x" format="2">
  <advance width="612"/>
  <unicode hex="0078"/>
  <outline>
    <contour>
      <point x="92" y="520" type="line"/>
      <point x="132" y="520" type="line"/>
      <point x="305" y="288" type="line"/>
      <point x="480" y="520" type="line"/>
      <point x="520" y="520" type="line"/>
      <point x="324" y="261" type="line"/>
      <point x="520" y="0" type="line"/>
      <point x="480" y="0" type="line"/>
      <point x="305" y="235" type="line"/>
      <point x="132" y="0" type="line"/>
      <point x="92" y="0" type="line"/>
      <point x="285" y="261" type="line"/>
    </contour>
  </outline>
</glyph>
<glyph name="y" format="2">
  <advance width="600"/>
  <unicode hex="0079"/>
  <anchor x="306" y="687" name="AccentCenter"/>
  <outline>
    <contour>
      <point x="63" y="520" type="line"/>
      <point x="105" y="520" type="line"/>
      <point x="303" y="42" type="line"/>
      <point x="305" y="31" type="line"/>
      <point x="307" y="42" type="line"/>
      <point x="505" y="520" type="line"/>
      <point x="544" y="520" type="line"/>
      <point x="242" y="-192" type="line"/>
      <point x="201" y="-192" type="line"/>
      <point x="288" y="1" type="line"/>
    </contour>
  </outline>
</glyph>
<glyph name="z" format="2">
  <advance width="600"/>
  <unicode hex="007A"/>
  <outline>
    <contour>
      <point x="101" y="520" type="line"/>
      <point x="504" y="520" type="line"/>
      <point x="504" y="492" type="line"/>
      <point x="133" y="28" type="line"/>
      <point x="504" y="28" type="line"/>
      <point x="504" y="0" type="line"/>
      <point x="96" y="0" type="line"/>
      <point x="96" y="28" type="line"/>
      <point x="467" y="492" type="line"/>
      <point x="101" y="492" type="line"/>
    </contour>
  </outline>
</glyph>
<glyph name="braceleft" format="2">
  <advance width="640"/>
  <unicode hex="007B"/>
  <outline>
    <contour>
      <point x="450" y="800" type="curve"/>
      <point x="553" y="800" type="line"/>
      <point x="553" y="772" type="line"/>
      <point x="450" y="772" type="line"/>
      <point x="373" y="772"/>
      <point x="326" y="721"/>
      <point x="326" y="648" type="curve"/>
      <point x="378" y="500" type="line"/>
      <point x="370" y="429"/>
      <point x="336" y="396"/>
      <point x="291" y="370" type="curve"/>
      <point x="335" y="349"/>
      <point x="365" y="314"/>
      <point x="378" y="242" type="curve"/>
      <point x="326" y="70" type="line"/>
      <point x="326" y="-3"/>
      <point x="369" y="-52"/>
      <point x="450" y="-52" type="curve"/>
      <point x="553" y="-52" type="line"/>
      <point x="553" y="-80" type="line"/>
      <point x="450" y="-80" type="line"/>
      <point x="350" y="-80"/>
      <point x="296" y="-21"/>
      <point x="296" y="73" type="curve"/>
      <point x="343" y="245" type="line"/>
      <point x="338" y="312"/>
      <point x="278" y="350"/>
      <point x="242" y="356" type="curve"/>
      <point x="120" y="356" type="line"/>
      <point x="120" y="384" type="line"/>
      <point x="242" y="384" type="line"/>
      <point x="278" y="390"/>
      <point x="341" y="434"/>
      <point x="343" y="497" type="curve"/>
      <point x="293" y="648" type="line"/>
      <point x="293" y="728"/>
      <point x="351" y="800"/>
    </contour>
  </outline>
</glyph>
<glyph name="bar" format="2">
  <advance width="612"/>
  <unicode hex="007C"/>
  <outline>
    <contour>
      <point x="290" y="819" type="line"/>
      <point x="322" y="819" type="line"/>
      <point x="322" y="-66" type="line"/>
      <point x="290" y="-66" type="line"/>
    </contour>
  </outline>
</glyph>
<glyph name="braceright" format="2">
  <advance width="600"/>
  <unicode hex="007D"/>
  <outline>
    <contour>
      <point x="240" y="800" type="line"/>
      <point x="339" y="800"/>
      <point x="397" y="728"/>
      <point x="397" y="648" type="curve"/>
      <point x="347" y="497" type="line"/>
      <point x="349" y="434"/>
      <point x="412" y="390"/>
      <point x="448" y="384" type="curve"/>
      <point x="536" y="384" type="line"/>
      <point x="536" y="356" type="line"/>
      <point x="448" y="356" type="line"/>
      <point x="412" y="350"/>
      <point x="352" y="312"/>
      <point x="347" y="245" type="curve"/>
      <point x="394" y="73" type="line"/>
      <point x="394" y="-21"/>
      <point x="340" y="-80"/>
      <point x="240" y="-80" type="curve"/>
      <point x="157" y="-80" type="line"/>
      <point x="157" y="-52" type="line"/>
      <point x="240" y="-52" type="line"/>
      <point x="321" y="-52"/>
      <point x="364" y="-3"/>
      <point x="364" y="70" type="curve"/>
      <point x="312" y="242" type="line"/>
      <point x="325" y="314"/>
      <point x="355" y="349"/>
      <point x="399" y="370" type="curve"/>
      <point x="354" y="396"/>
      <point x="320" y="429"/>
      <point x="312" y="500" type="curve"/>
      <point x="364" y="648" type="line"/>
      <point x="364" y="721"/>
      <point x="317" y="772"/>
      <point x="240" y="772" type="curve"/>
      <point x="157" y="772" type="line"/>
      <point x="157" y="800" type="line"/>
    </contour>
  </outline>
</glyph>
<glyph name="asciitilde" format="2">
  <advance width="600"/>
  <unicode hex="007E"/>
  <outline>
    <contour>
      <point x="64" y="229" type="line"/>
      <point x="74" y="335"/>
      <point x="131" y="384"/>
      <point x="197" y="384" type="curve" smooth="yes"/>
      <point x="300" y="384"/>
      <point x="320" y="254"/>
      <point x="405" y="254" type="curve" smooth="yes"/>
      <point x="468" y="254"/>
      <point x="503" y="306"/>
      <point x="508" y="383" type="curve"/>
      <point x="536" y="380" type="line"/>
      <point x="531" y="294"/>
      <point x="487" y="226"/>
      <point x="404" y="226" type="curve" smooth="yes"/>
      <point x="299" y="226"/>
      <point x="283" y="356"/>
      <point x="197" y="356" type="curve" smooth="yes"/>
      <point x="140" y="356"/>
      <point x="100" y="310"/>
      <point x="94" y="226" type="curve"/>
    </contour>
  </outline>
</glyph>
<glyph name="sterling" format="2">
  <advance width="600"/>
  <unicode hex="00A3"/>
  <outline>
    <contour>
      <point x="349" y="716" type="curve" smooth="yes"/>
      <point x="438" y="716"/>
      <point x="494" y="679"/>
      <point x="539" y="639" type="curve"/>
      <point x="522" y="616" type="line"/>
      <point x="474" y="658"/>
      <point x="430" y="688"/>
      <point x="349" y="688" type="curve" smooth="yes"/>
      <point x="254" y="688"/>
      <point x="174" y="619"/>
      <point x="174" y="531" type="curve" smooth="yes"/>
      <point x="174" y="472"/>
      <point x="201" y="420"/>
      <point x="220" y="359" type="curve"/>
      <point x="396" y="359" type="line"/>
      <point x="396" y="332" type="line"/>
      <point x="229" y="331" type="line"/>
      <point x="235" y="311"/>
      <point x="244" y="275"/>
      <point x="244" y="240" type="curve" smooth="yes"/>
      <point x="244" y="131"/>
      <point x="171" y="58"/>
      <point x="98" y="28" type="curve"/>
      <point x="511" y="28" type="line"/>
      <point x="511" y="0" type="line"/>
      <point x="64" y="0" type="line"/>
      <point x="64" y="36" type="line"/>
      <point x="153" y="77"/>
      <point x="212" y="142"/>
      <point x="212" y="240" type="curve" smooth="yes"/>
      <point x="212" y="272"/>
      <point x="206" y="301"/>
      <point x="197" y="331" type="curve"/>
      <point x="35" y="332" type="line"/>
      <point x="35" y="359" type="line"/>
      <point x="190" y="359" type="line"/>
      <point x="175" y="412"/>
      <point x="142" y="465"/>
      <point x="142" y="533" type="curve" smooth="yes"/>
      <point x="142" y="628"/>
      <point x="233" y="716"/>
    </contour>
  </outline>
</glyph>
<glyph name="currency" format="2">
  <advance width="600"/>
  <unicode hex="00A4"/>
  <outline>
    <contour>
      <point x="476" y="140" type="line"/>
      <point x="560" y="56" type="line"/>
      <point x="529" y="25" type="line"/>
      <point x="445" y="108" type="line"/>
    </contour>
    <contour>
      <point x="155" y="108" type="line"/>
      <point x="71" y="25" type="line"/>
      <point x="40" y="56" type="line"/>
      <point x="124" y="139" type="line"/>
    </contour>
    <contour>
      <point x="125" y="382" type="line"/>
      <point x="41" y="466" type="line"/>
      <point x="71" y="496" type="line"/>
      <point x="155" y="413" type="line"/>
    </contour>
    <contour>
      <point x="444" y="412" type="line"/>
      <point x="529" y="496" type="line"/>
      <point x="560" y="465" type="line"/>
      <point x="475" y="381" type="line"/>
    </contour>
    <contour>
      <point x="300" y="462" type="curve" smooth="yes"/>
      <point x="189" y="462"/>
      <point x="104" y="371"/>
      <point x="104" y="259" type="curve" smooth="yes"/>
      <point x="104" y="147"/>
      <point x="188" y="57"/>
      <point x="300" y="57" type="curve" smooth="yes"/>
      <point x="412" y="57"/>
      <point x="496" y="147"/>
      <point x="496" y="259" type="curve" smooth="yes"/>
      <point x="496" y="371"/>
      <point x="412" y="462"/>
    </contour>
    <contour>
      <point x="300" y="32" type="curve" smooth="yes"/>
      <point x="177" y="32"/>
      <point x="78" y="133"/>
      <point x="78" y="260" type="curve" smooth="yes"/>
      <point x="78" y="387"/>
      <point x="177" y="487"/>
      <point x="300" y="487" type="curve" smooth="yes"/>
      <point x="424" y="487"/>
      <point x="523" y="387"/>
      <point x="523" y="260" type="curve" smooth="yes"/>
      <point x="523" y="133"/>
      <point x="424" y="32"/>
    </contour>
  </outline>
</glyph>
<glyph name="yen" format="2">
  <advance width="612"/>
  <unicode hex="00A5"/>
  <outline>
    <contour>
      <point x="111.4" y="287.8" type="line"/>
      <point x="454.8" y="287.8" type="line"/>
      <point x="454.8" y="250.2" type="line"/>
      <point x="111.4" y="250.2" type="line"/>
    </contour>
    <contour>
      <point x="111.4" y="154.8" type="line"/>
      <point x="454.8" y="154.8" type="line"/>
      <point x="454.8" y="114" type="line"/>
      <point x="111.4" y="114" type="line"/>
    </contour>
    <component base="Y"/>
  </outline>
</glyph>
<glyph name="section" format="2">
  <advance width="600"/>
  <unicode hex="00A7"/>
  <outline>
    <contour>
      <point x="282" y="768" type="curve" smooth="yes"/>
      <point x="362" y="768"/>
      <point x="420" y="750"/>
      <point x="481" y="708" type="curve"/>
      <point x="464.2" y="687.2" type="line"/>
      <point x="408" y="725"/>
      <point x="364" y="742"/>
      <point x="277" y="742" type="curve" smooth="yes"/>
      <point x="176" y="742"/>
      <point x="93" y="690"/>
      <point x="93" y="591" type="curve" smooth="yes"/>
      <point x="93" y="495"/>
      <point x="131.8" y="443.6"/>
      <point x="253.2" y="418.8" type="curve" smooth="yes"/>
      <point x="304.4" y="408.4" type="line" smooth="yes"/>
      <point x="440.2" y="381.6"/>
      <point x="508" y="312.2"/>
      <point x="508" y="211" type="curve" smooth="yes"/>
      <point x="508" y="160.2"/>
      <point x="490.6" y="121.4"/>
      <point x="451.6" y="88.8" type="curve"/>
      <point x="461.2" y="61.2"/>
      <point x="468" y="30.2"/>
      <point x="468" y="-0.399998" type="curve" smooth="yes"/>
      <point x="468" y="-99.6"/>
      <point x="387.8" y="-191"/>
      <point x="252" y="-191" type="curve" smooth="yes"/>
      <point x="133.6" y="-191"/>
      <point x="68" y="-144.8"/>
      <point x="18.6" y="-89" type="curve"/>
      <point x="38" y="-67.6" type="line"/>
      <point x="98.8" y="-136.2"/>
      <point x="184.6" y="-172.6"/>
      <point x="260.8" y="-172.6" type="curve" smooth="yes"/>
      <point x="318.6" y="-172.6"/>
      <point x="450.8" y="-153.6"/>
      <point x="450.8" y="-10.8" type="curve" smooth="yes"/>
      <point x="450.8" y="58.8"/>
      <point x="434" y="123"/>
      <point x="262" y="160" type="curve" smooth="yes"/>
      <point x="243.4" y="163.8" type="line" smooth="yes"/>
      <point x="183" y="177"/>
      <point x="28" y="211.8"/>
      <point x="28" y="372" type="curve" smooth="yes"/>
      <point x="28" y="425.2"/>
      <point x="43" y="456"/>
      <point x="86.6" y="492.8" type="curve"/>
      <point x="69" y="521"/>
      <point x="61" y="563"/>
      <point x="61" y="592" type="curve" smooth="yes"/>
      <point x="61" y="696"/>
      <point x="146" y="768"/>
    </contour>
    <contour>
      <point x="99" y="462" type="curve"/>
      <point x="73" y="436"/>
      <point x="61.6" y="399.2"/>
      <point x="61.6" y="362" type="curve" smooth="yes"/>
      <point x="61.6" y="269.8"/>
      <point x="105" y="222.8"/>
      <point x="246.2" y="193.2" type="curve" smooth="yes"/>
      <point x="273.4" y="187" type="line"/>
      <point x="342.2" y="173.6"/>
      <point x="400.2" y="148"/>
      <point x="441.8" y="115.8" type="curve"/>
      <point x="466.4" y="143.4"/>
      <point x="477.6" y="177.8"/>
      <point x="477.6" y="220.6" type="curve" smooth="yes"/>
      <point x="477.6" y="287.8"/>
      <point x="459.4" y="348.8"/>
      <point x="283.2" y="384.8" type="curve"/>
      <point x="266.6" y="387.6" type="line" smooth="yes"/>
      <point x="197.2" y="399"/>
      <point x="142" y="427"/>
    </contour>
  </outline>
</glyph>
<glyph name="copyright" format="2">
  <advance width="612"/>
  <unicode hex="00A9"/>
  <outline>
    <contour>
      <point x="426.4" y="724.8" type="curve" smooth="yes"/>
      <point x="223.2" y="724.8"/>
      <point x="57.6" y="559.2"/>
      <point x="57.6" y="356" type="curve" smooth="yes"/>
      <point x="57.6" y="151.8"/>
      <point x="223.2" y="-12.8"/>
      <point x="426.4" y="-12.8" type="curve" smooth="yes"/>
      <point x="630.6" y="-12.8"/>
      <point x="795.2" y="151.8"/>
      <point x="795.2" y="356" type="curve" smooth="yes"/>
      <point x="795.2" y="559.2"/>
      <point x="630.6" y="724.8"/>
    </contour>
    <contour>
      <point x="426.4" y="694.2" type="curve" smooth="yes"/>
      <point x="611.6" y="694.2"/>
      <point x="760.2" y="541.2"/>
      <point x="760.2" y="356" type="curve" smooth="yes"/>
      <point x="760.2" y="170.8"/>
      <point x="611.6" y="17.8"/>
      <point x="426.4" y="17.8" type="curve" smooth="yes"/>
      <point x="241.2" y="17.8"/>
      <point x="92.6" y="170.8"/>
      <point x="92.6" y="356" type="curve" smooth="yes"/>
      <point x="92.6" y="541.2"/>
      <point x="241.2" y="694.2"/>
    </contour>
    <contour>
      <point x="420.8" y="594" type="curve" smooth="yes"/>
      <point x="471.8" y="594"/>
      <point x="512.2" y="582.8"/>
      <point x="574.4" y="524.4" type="curve"/>
      <point x="563.2" y="509.6" type="line"/>
      <point x="507" y="561.4"/>
      <point x="473.8" y="574.8"/>
      <point x="414" y="574.8" type="curve" smooth="yes"/>
      <point x="305.6" y="574.8"/>
      <point x="243.2" y="507.2"/>
      <point x="243.2" y="355.2" type="curve" smooth="yes"/>
      <point x="243.2" y="203.6"/>
      <point x="305.6" y="138.4"/>
      <point x="410.8" y="138.4" type="curve" smooth="yes"/>
      <point x="478.6" y="138.4"/>
      <point x="515.4" y="146.4"/>
      <point x="565.6" y="200.4" type="curve"/>
      <point x="574.2" y="184.4" type="line"/>
      <point x="525.4" y="133.2"/>
      <point x="474.8" y="120"/>
      <point x="418.2" y="120" type="curve" smooth="yes"/>
      <point x="304.2" y="120"/>
      <point x="229.2" y="204.4"/>
      <point x="229.2" y="352.8" type="curve" smooth="yes"/>
      <point x="229.2" y="511"/>
      <point x="298.2" y="594"/>
    </contour>
  </outline>
</glyph>
<glyph name="mu" format="2">
  <advance width="600"/>
  <unicode hex="00B5"/>
  <outline>
    <contour>
      <point x="93" y="518" type="line"/>
      <point x="125" y="518" type="line"/>
      <point x="125" y="102" type="line"/>
      <point x="149" y="73"/>
      <point x="182" y="20"/>
      <point x="278" y="20" type="curve" smooth="yes"/>
      <point x="352" y="20"/>
      <point x="439" y="65"/>
      <point x="439" y="226" type="curve" smooth="yes"/>
      <point x="439" y="518" type="line"/>
      <point x="471" y="518" type="line"/>
      <point x="471" y="69" type="line" smooth="yes"/>
      <point x="471" y="42"/>
      <point x="486" y="20"/>
      <point x="511" y="20" type="curve" smooth="yes"/>
      <point x="536" y="20" type="line"/>
      <point x="536" y="-1" type="line"/>
      <point x="534" y="-3"/>
      <point x="519" y="-8"/>
      <point x="504" y="-8" type="curve" smooth="yes"/>
      <point x="453" y="-8"/>
      <point x="435" y="29"/>
      <point x="435" y="88" type="curve"/>
      <point x="409" y="25"/>
      <point x="355" y="-8"/>
      <point x="277" y="-8" type="curve" smooth="yes"/>
      <point x="214" y="-8"/>
      <point x="168.4" y="0.2"/>
      <point x="118.8" y="65" type="curve"/>
      <point x="124" y="55"/>
      <point x="125" y="45"/>
      <point x="125" y="33" type="curve" smooth="yes"/>
      <point x="125" y="-190" type="line"/>
      <point x="93" y="-190" type="line"/>
    </contour>
  </outline>
</glyph>
<glyph name="Eth" format="2">
  <advance width="600"/>
  <unicode hex="00D0"/>
  <outline>
    <contour>
      <point x="36" y="382" type="line"/>
      <point x="231" y="382" type="line"/>
      <point x="231" y="354" type="line"/>
      <point x="36" y="354" type="line"/>
    </contour>
    <component base="D"/>
  </outline>
</glyph>
<glyph name="ae" format="2">
  <advance width="612"/>
  <unicode hex="00E6"/>
  <outline>
    <contour>
      <point x="260.4" y="528" type="curve" smooth="yes"/>
      <point x="339.8" y="528"/>
      <point x="395.2" y="497.2"/>
      <point x="412" y="448.4" type="curve"/>
      <point x="459.4" y="504.4"/>
      <point x="510.2" y="528"/>
      <point x="596.2" y="528" type="curve" smooth="yes"/>
      <point x="707" y="528"/>
      <point x="770.8" y="430.6"/>
      <point x="770.8" y="305.2" type="curve" smooth="yes"/>
      <point x="770.8" y="271.8"/>
      <point x="770" y="256.2"/>
      <point x="767.8" y="250.4" type="curve"/>
      <point x="407.4" y="250.4" type="line"/>
      <point x="407.4" y="214"/>
      <point x="391.4" y="15.2"/>
      <point x="590" y="15.2" type="curve" smooth="yes"/>
      <point x="656.4" y="15.2"/>
      <point x="695.8" y="24.2"/>
      <point x="763.8" y="89.8" type="curve"/>
      <point x="779.6" y="74.6" type="line"/>
      <point x="717.2" y="12.4"/>
      <point x="645.2" y="-8"/>
      <point x="601.6" y="-8" type="curve" smooth="yes"/>
      <point x="512.8" y="-8"/>
      <point x="455" y="25.4"/>
      <point x="410" y="94.4" type="curve"/>
      <point x="376" y="53.6"/>
      <point x="308.2" y="-8"/>
      <point x="210" y="-8" type="curve" smooth="yes"/>
      <point x="106.4" y="-8"/>
      <point x="52.8" y="42.4"/>
      <point x="52.8" y="144.8" type="curve" smooth="yes"/>
      <point x="52.8" y="245.4"/>
      <point x="122.2" y="301.6"/>
      <point x="268.6" y="301.6" type="curve" smooth="yes"/>
      <point x="393.2" y="301.6" type="line"/>
      <point x="393.2" y="352.2" type="line" smooth="yes"/>
      <point x="393.2" y="449.8"/>
      <point x="351.6" y="498.8"/>
      <point x="264.4" y="498.8" type="curve" smooth="yes"/>
      <point x="205" y="498.8"/>
      <point x="160.8" y="479.6"/>
      <point x="106.4" y="435" type="curve"/>
      <point x="78.6" y="445.8" type="line"/>
      <point x="148.4" y="505.2"/>
      <point x="197.4" y="528"/>
    </contour>
    <contour>
      <point x="393.2" y="269" type="line"/>
      <point x="257.2" y="269" type="line" smooth="yes"/>
      <point x="122" y="269"/>
      <point x="70.4" y="227.8"/>
      <point x="70.4" y="139.6" type="curve" smooth="yes"/>
      <point x="70.4" y="58.8"/>
      <point x="118.2" y="19.4"/>
      <point x="216.4" y="19.4" type="curve" smooth="yes"/>
      <point x="283.2" y="19.4"/>
      <point x="361.6" y="70.8"/>
      <point x="393.2" y="113.4" type="curve"/>
    </contour>
    <contour>
      <point x="581" y="503" type="curve" smooth="yes"/>
      <point x="488.4" y="503"/>
      <point x="407.4" y="457.6"/>
      <point x="407.4" y="286" type="curve"/>
      <point x="758.8" y="286" type="line"/>
      <point x="758.8" y="319.8" type="line" smooth="yes"/>
      <point x="758.8" y="438.2"/>
      <point x="696" y="503"/>
    </contour>
  </outline>
</glyph>
<glyph name="eth" format="2">
  <advance width="600"/>
  <unicode hex="00F0"/>
  <outline>
    <contour>
      <point x="229" y="716" type="curve"/>
      <point x="273" y="716" type="line"/>
      <point x="288" y="708"/>
      <point x="329" y="678"/>
      <point x="347" y="659" type="curve"/>
      <point x="414" y="701" type="line"/>
      <point x="414" y="670" type="line"/>
      <point x="367" y="641" type="line"/>
      <point x="455" y="552"/>
      <point x="525" y="429"/>
      <point x="525" y="254" type="curve" smooth="yes"/>
      <point x="525" y="94"/>
      <point x="431" y="-8"/>
      <point x="297" y="-8" type="curve" smooth="yes"/>
      <point x="148" y="-8"/>
      <point x="69" y="94"/>
      <point x="69" y="258" type="curve" smooth="yes"/>
      <point x="69" y="416"/>
      <point x="172" y="528"/>
      <point x="296" y="528" type="curve" smooth="yes"/>
      <point x="355" y="528"/>
      <point x="413" y="509"/>
      <point x="456" y="463" type="curve"/>
      <point x="418" y="541"/>
      <point x="390" y="580"/>
      <point x="343" y="626" type="curve"/>
      <point x="235" y="557" type="line"/>
      <point x="235" y="588" type="line"/>
      <point x="324" y="645" type="line"/>
      <point x="291" y="679"/>
      <point x="254" y="702"/>
    </contour>
    <contour>
      <point x="297" y="500" type="curve" smooth="yes"/>
      <point x="189" y="500"/>
      <point x="101" y="394"/>
      <point x="101" y="258" type="curve" smooth="yes"/>
      <point x="101" y="115"/>
      <point x="161" y="20"/>
      <point x="297" y="20" type="curve" smooth="yes"/>
      <point x="415" y="20"/>
      <point x="493" y="114"/>
      <point x="493" y="253" type="curve" smooth="yes"/>
      <point x="493" y="318"/>
      <point x="487" y="367"/>
      <point x="467" y="425" type="curve"/>
      <point x="417" y="482"/>
      <point x="352" y="500"/>
    </contour>
  </outline>
</glyph>
<glyph name="oslash" format="2">
  <advance width="640"/>
  <unicode hex="00F8"/>
  <outline>
    <contour>
      <point x="443" y="520" type="line"/>
      <point x="477" y="520" type="line"/>
      <point x="79" y="0" type="line"/>
      <point x="46" y="0" type="line"/>
    </contour>
    <component base="o"/>
  </outline>
</glyph>
<glyph name="thorn" format="2">
  <advance width="640"/>
  <unicode hex="00FE"/>
  <outline>
    <contour>
      <point x="89.6" y="708" type="line"/>
      <point x="104.8" y="708" type="line"/>
      <point x="104.8" y="411.4" type="line"/>
      <point x="174.4" y="489"/>
      <point x="236.8" y="528"/>
      <point x="297.2" y="528" type="curve" smooth="yes"/>
      <point x="431.4" y="528"/>
      <point x="490.4" y="443.2"/>
      <point x="490.4" y="260.6" type="curve" smooth="yes"/>
      <point x="490.4" y="93.6"/>
      <point x="416.6" y="-8"/>
      <point x="291.8" y="-8" type="curve"/>
      <point x="308.6" y="-8"/>
      <point x="178.4" y="-14.6"/>
      <point x="104.8" y="93.6" type="curve"/>
      <point x="104.8" y="-192.6" type="line"/>
      <point x="89.6" y="-192.6" type="line"/>
    </contour>
    <contour>
      <point x="286.4" y="509.6" type="curve" smooth="yes"/>
      <point x="205.8" y="509.6"/>
      <point x="150" y="474.2"/>
      <point x="104.8" y="396.6" type="curve"/>
      <point x="104.8" y="134" type="line"/>
      <point x="154.2" y="46.4"/>
      <point x="205.2" y="12.8"/>
      <point x="288.8" y="12.8" type="curve" smooth="yes"/>
      <point x="405.6" y="12.8"/>
      <point x="477.6" y="109.6"/>
      <point x="477.6" y="264.8" type="curve" smooth="yes"/>
      <point x="477.6" y="435.4"/>
      <point x="419" y="509.6"/>
    </contour>
  </outline>
</glyph>
<glyph name="dotlessi" format="2">
  <advance width="600"/>
  <unicode hex="0131"/>
  <anchor x="290" y="687" name="AccentCenter"/>
  <outline>
    <contour>
      <point x="77" y="520" type="line"/>
      <point x="305" y="520" type="line"/>
      <point x="305" y="28" type="line"/>
      <point x="506" y="28" type="line"/>
      <point x="506" y="0" type="line"/>
      <point x="273" y="0" type="line"/>
      <point x="273" y="492" type="line"/>
      <point x="77" y="492" type="line"/>
    </contour>
  </outline>
</glyph>
<glyph name="uni0308" format="2">
  <unicode hex="0308"/>
  <anchor x="0" y="843.8" name="_AccentCenter"/>
  <outline>
    <contour>
      <point x="-104" y="899" type="curve" smooth="yes"/>
      <point x="-83" y="899"/>
      <point x="-66" y="882"/>
      <point x="-66" y="860" type="curve" smooth="yes"/>
      <point x="-66" y="839"/>
      <point x="-83" y="822"/>
      <point x="-104" y="822" type="curve" smooth="yes"/>
      <point x="-126" y="822"/>
      <point x="-143" y="840"/>
      <point x="-143" y="860" type="curve" smooth="yes"/>
      <point x="-143" y="881"/>
      <point x="-126" y="899"/>
    </contour>
    <contour>
      <point x="106" y="899" type="curve" smooth="yes"/>
      <point x="127" y="899"/>
      <point x="144" y="882"/>
      <point x="144" y="860" type="curve" smooth="yes"/>
      <point x="144" y="839"/>
      <point x="127" y="822"/>
      <point x="106" y="822" type="curve" smooth="yes"/>
      <point x="84" y="822"/>
      <point x="67" y="840"/>
      <point x="67" y="860" type="curve" smooth="yes"/>
      <point x="67" y="881"/>
      <point x="84" y="899"/>
    </contour>
  </outline>
</glyph>
<glyph name="uni0327" format="2">
  <unicode hex="0327"/>
  <outline>
    <contour>
      <point x="-11" y="-4.8" type="line"/>
      <point x="7.4" y="-4.8" type="line"/>
      <point x="7.4" y="-137.4" type="line"/>
      <point x="7.4" y="-101.4"/>
      <point x="50.6" y="-224"/>
      <point x="-81.8" y="-224" type="curve" smooth="yes"/>
      <point x="-93.4" y="-224"/>
      <point x="-95.6" y="-222.8"/>
      <point x="-115.4" y="-216.6" type="curve"/>
      <point x="-102.4" y="-215.2" type="line"/>
      <point x="-82.6" y="-215.2" type="line" smooth="yes"/>
      <point x="-35.6" y="-215.2"/>
      <point x="-11" y="-189.6"/>
      <point x="-11" y="-137.2" type="curve" smooth="yes"/>
    </contour>
  </outline>
</glyph>
<glyph name="Euro" format="2">
  <advance width="600"/>
  <unicode hex="20AC"/>
  <outline>
    <contour>
      <point x="365" y="716" type="curve" smooth="yes"/>
      <point x="440" y="716"/>
      <point x="501" y="689"/>
      <point x="547" y="650" type="curve"/>
      <point x="531" y="627" type="line"/>
      <point x="481" y="667"/>
      <point x="425" y="688"/>
      <point x="364" y="688" type="curve" smooth="yes"/>
      <point x="236" y="688"/>
      <point x="130" y="586"/>
      <point x="130" y="352" type="curve" smooth="yes"/>
      <point x="130" y="165"/>
      <point x="194" y="20"/>
      <point x="362" y="20" type="curve" smooth="yes"/>
      <point x="454" y="20"/>
      <point x="504" y="53"/>
      <point x="544" y="75" type="curve"/>
      <point x="558" y="50" type="line"/>
      <point x="507" y="22"/>
      <point x="457" y="-8"/>
      <point x="362" y="-8" type="curve" smooth="yes"/>
      <point x="180" y="-8"/>
      <point x="98" y="127"/>
      <point x="98" y="352" type="curve" smooth="yes"/>
      <point x="98" y="608"/>
      <point x="221" y="716"/>
    </contour>
    <contour>
      <point x="29" y="450" type="line"/>
      <point x="474" y="450" type="line"/>
      <point x="464" y="422" type="line"/>
      <point x="29" y="422" type="line"/>
    </contour>
    <contour>
      <point x="29" y="291" type="line"/>
      <point x="415" y="291" type="line"/>
      <point x="405" y="263" type="line"/>
      <point x="29" y="263" type="line"/>
    </contour>
  </outline>
</glyph>
<glyph name="a.ss01" format="2">
  <advance width="600"/>
  <outline>
    <contour>
      <point x="316" y="528" type="curve" smooth="yes"/>
      <point x="429" y="528"/>
      <point x="499" y="474"/>
      <point x="499" y="345" type="curve" smooth="yes"/>
      <point x="499" y="0" type="line" smooth="yes"/>
      <point x="499" y="0"/>
      <point x="467" y="0"/>
      <point x="467" y="0" type="curve" smooth="yes"/>
      <point x="467" y="0"/>
      <point x="467" y="101"/>
      <point x="467" y="101" type="curve"/>
      <point x="439" y="48"/>
      <point x="377" y="-8"/>
      <point x="284" y="-8" type="curve" smooth="yes"/>
      <point x="173" y="-8"/>
      <point x="108" y="45"/>
      <point x="108" y="137" type="curve" smooth="yes"/>
      <point x="108" y="246"/>
      <point x="189" y="286"/>
      <point x="297" y="286" type="curve" smooth="yes"/>
      <point x="467" y="286" type="line"/>
      <point x="467" y="359" type="line" smooth="yes"/>
      <point x="467" y="453"/>
      <point x="410" y="500"/>
      <point x="316" y="500" type="curve" smooth="yes"/>
      <point x="256" y="500"/>
      <point x="203" y="482"/>
      <point x="156" y="463" type="curve"/>
      <point x="146" y="489" type="line"/>
      <point x="194" y="509"/>
      <point x="240" y="528"/>
    </contour>
    <contour>
      <point x="467" y="258" type="line"/>
      <point x="298" y="258" type="line" smooth="yes"/>
      <point x="195" y="258"/>
      <point x="140" y="221"/>
      <point x="140" y="137" type="curve" smooth="yes"/>
      <point x="140" y="61"/>
      <point x="192" y="20"/>
      <point x="285" y="20" type="curve" smooth="yes"/>
      <point x="373" y="20"/>
      <point x="436" y="78"/>
      <point x="467" y="141" type="curve"/>
    </contour>
  </outline>
</glyph>
<glyph name="equal_equal.liga" format="2">
  <advance width="1200"/>
  <outline>
    <contour>
      <point x="220" y="398" type="line"/>
      <point x="980" y="398" type="line"/>
      <point x="980" y="370" type="line"/>
      <point x="220" y="370" type="line"/>
    </contour>
    <contour>
      <point x="220" y="204" type="line"/>
      <point x="980" y="203" type="line"/>
      <point x="980" y="175" type="line"/>
      <point x="220" y="176" type="line"/>
    </contour>
  </outline>
</glyph>
<glyph name="r.alt" format="2">
  <advance width="600"/>
  <outline>
    <contour>
      <point x="27" y="520" type="line"/>
      <point x="218" y="520" type="line"/>
      <point x="219" y="348" type="line"/>
      <point x="226" y="429"/>
      <point x="317" y="528"/>
      <point x="444" y="528" type="curve" smooth="yes"/>
      <point x="478" y="528"/>
      <point x="498" y="525"/>
      <point x="533" y="515" type="curve"/>
      <point x="527" y="487" type="line"/>
      <point x="496" y="496"/>
      <point x="473" y="500"/>
      <point x="443" y="500" type="curve" smooth="yes"/>
      <point x="328" y="500"/>
      <point x="233" y="401"/>
      <point x="220" y="289" type="curve"/>
      <point x="220" y="0" type="line"/>
      <point x="188" y="0" type="line"/>
      <point x="188" y="492" type="line"/>
      <point x="33" y="492" type="line"/>
    </contour>
  </outline>
</glyph>
<glyph name="r.ss01" format="2">
  <advance width="600"/>
  <outline>
    <contour>
      <point x="57" y="520" type="line"/>
      <point x="242" y="520" type="line"/>
      <point x="242" y="389" type="line"/>
      <point x="265" y="444"/>
      <point x="317" y="528"/>
      <point x="447" y="528" type="curve" smooth="yes"/>
      <point x="480" y="528"/>
      <point x="517" y="518"/>
      <point x="530" y="512" type="curve"/>
      <point x="521" y="487" type="line"/>
      <point x="508" y="492"/>
      <point x="476" y="501"/>
      <point x="445" y="501" type="curve" smooth="yes"/>
      <point x="321" y="501"/>
      <point x="271" y="416"/>
      <point x="242" y="344" type="curve"/>
      <point x="242" y="0" type="line"/>
      <point x="210" y="0" type="line"/>
      <point x="210" y="492" type="line"/>
      <point x="62" y="492" type="line"/>
    </contour>
  </outline>
</glyph>
